<?xml version="1.0" standalone="no"?>
<!DOCTYPE svg PUBLIC "-//W3C//DTD SVG 1.1//EN" "http://www.w3.org/Graphics/SVG/1.1/DTD/svg11.dtd" >
<svg xmlns="http://www.w3.org/2000/svg">
<metadata></metadata>
<defs>
<font id="thesansb5plain" horiz-adv-x="1126" >
<font-face units-per-em="2048" ascent="1638" descent="-410" />
<missing-glyph horiz-adv-x="446" />
<glyph horiz-adv-x="2048" />
<glyph horiz-adv-x="2048" />
<glyph unicode="&#xd;" horiz-adv-x="681" />
<glyph unicode=" "  horiz-adv-x="446" />
<glyph unicode="&#x09;" horiz-adv-x="446" />
<glyph unicode="&#xa0;" horiz-adv-x="446" />
<glyph unicode="!" horiz-adv-x="655" d="M221 102.5q0 51.5 36 86t89 34.5q51 0 87 -34.5t36 -86t-36 -86t-87 -34.5q-53 0 -89 34.5t-36 86zM238 1440h217l-31 -1096h-154z" />
<glyph unicode="&#x22;" horiz-adv-x="749" d="M106 1432h195l-31 -471h-135zM449 1432h194l-29 -471h-137z" />
<glyph unicode="#" d="M63 373v127h195l35 344h-180v127h192l39 360h139l-37 -360h299l39 360h140l-39 -360h178v-127h-191l-34 -344h176v-127h-191l-39 -373h-141l41 373h-299l-41 -373h-139l39 373h-181zM397 500h299l35 344h-299z" />
<glyph unicode="$" d="M170 952q0 131 90 227.5t238 116.5v199h137v-188q109 -2 221 -25l-20 -162q-117 35 -228 35q-131 0 -191.5 -53t-60.5 -127q0 -70 60.5 -118t146.5 -81t172 -70.5t146.5 -111t60.5 -182.5q0 -137 -92 -239.5t-252 -131.5v-215h-137v207q-135 0 -256 28l18 172 q117 -45 262 -45q119 0 192 49.5t73 149.5q0 61 -43 106.5t-107.5 70t-139.5 57t-139.5 67.5t-107.5 102.5t-43 161.5z" />
<glyph unicode="%" horiz-adv-x="1536" d="M90 1024q0 143 85 235.5t222 92.5q289 -1 289 -310q0 -147 -85 -239t-222 -92q-289 0 -289 313zM197 43l1017 1327l119 -86l-1018 -1327zM242 1036q0 -203 151 -202q61 0 101.5 54t40.5 140q0 102 -36 150.5t-112 48.5q-66 0 -105.5 -52.5t-39.5 -138.5zM850 293 q0 143 85 235.5t222 92.5q289 -1 289 -308q0 -147 -85 -240t-222 -93q-289 0 -289 313zM1001 305q0 -201 152 -201q61 0 101 53.5t40 141.5q0 199 -147 199q-66 0 -106 -52.5t-40 -140.5z" />
<glyph unicode="&#x26;" horiz-adv-x="1628" d="M115 381q0 129 71.5 231.5t212.5 212.5q-106 123 -148 206t-42 167q0 131 97 220t267 89q156 0 242 -76.5t86 -199.5q0 -106 -59.5 -201.5t-196.5 -202.5q223 -231 453 -415v-2q154 217 139 508h184q10 -352 -188 -609q141 -109 280 -207l-118 -141q-180 123 -291 217 q-227 -199 -541 -198q-213 0 -330.5 112.5t-117.5 288.5zM303 403q0 -111 81 -188.5t212 -77.5q215 1 379 142q-268 219 -469 438q-203 -162 -203 -314zM391 1206q0 -100 150 -272q90 74 133 138t43 140q0 68 -40 112t-120 44q-72 0 -119 -46t-47 -116z" />
<glyph unicode="'" horiz-adv-x="407" d="M106 1432h195l-31 -471h-135z" />
<glyph unicode="(" horiz-adv-x="620" d="M143 582q0 541 301 1017l134 -63q-254 -436 -254 -944q0 -522 256 -952l-138 -68q-299 473 -299 1010z" />
<glyph unicode=")" horiz-adv-x="620" d="M51 1534l139 65q297 -472 297 -1007q0 -545 -301 -1020l-133 66q254 430 254 942q0 526 -256 954z" />
<glyph unicode="*" horiz-adv-x="765" d="M78 1096l211 92l-211 94l69 119l185 -135l-23 229h137l-24 -229l186 135l68 -119l-211 -92l211 -94l-70 -119l-184 135l22 -229h-137l23 229l-185 -135z" />
<glyph unicode="+" d="M86 532v154h389v410h174v-410h391v-154h-391v-411h-174v411h-389z" />
<glyph unicode="," horiz-adv-x="466" d="M53 -246q174 186 88 295q-43 53 -14.5 117.5t102.5 64.5q80 0 115 -73.5t-15 -205.5t-198 -267z" />
<glyph unicode="-" horiz-adv-x="675" d="M96 512v152h484v-152h-484z" />
<glyph unicode="." horiz-adv-x="466" d="M106 108.5q0 51.5 37 89.5t90.5 38t90 -38t36.5 -89.5t-36.5 -89t-90 -37.5t-90.5 37.5t-37 89z" />
<glyph unicode="/" horiz-adv-x="897" d="M6 -330l717 1880h176l-717 -1880h-176z" />
<glyph unicode="0" d="M96 672q0 338 130 509t349 171q215 0 334 -153.5t119 -518.5q0 -356 -137 -528t-340 -172q-227 0 -341 159.5t-114 532.5zM295 684q0 -289 60.5 -418t205.5 -129q129 0 198.5 133.5t69.5 397.5q0 289 -63.5 408.5t-204.5 119.5q-266 0 -266 -512z" />
<glyph unicode="1" d="M150 1188l403 143h147v-1165h316v-166h-864v166h358v979l-328 -129z" />
<glyph unicode="2" d="M119 0v150l293 288q203 199 266 298.5t63 199.5q0 109 -70.5 179.5t-193.5 70.5q-168 0 -301 -105l-45 160q172 109 379 109t319.5 -111t112.5 -272q0 -135 -67.5 -255t-260.5 -302l-247 -236v-2q172 4 421 4h203v-176h-872z" />
<glyph unicode="3" d="M158 12l20 166q123 -41 252 -41q164 0 252 66.5t88 179.5q0 111 -86 174.5t-246 63.5q-115 0 -200 -11v148h47q459 0 458 246q0 90 -67.5 142t-183.5 52q-152 0 -293 -76l-19 162q168 68 344 68q199 0 306.5 -89t107.5 -231q0 -236 -254 -311l-2 -2q125 -12 207 -101 t82 -210q0 -197 -151.5 -312.5t-407.5 -115.5q-133 0 -254 32z" />
<glyph unicode="4" d="M47 457l565 874h250v-856h219v-168h-219v-307h-182v307h-619zM236 469q122 6 446 6v672h-2z" />
<glyph unicode="5" d="M174 8v170q121 -39 260 -39q162 0 251 74t89 201q0 121 -93 185.5t-255 64.5q-117 0 -223 -17v684h721v-176h-549v-348q70 4 112 4q229 0 357.5 -105.5t128.5 -269.5q0 -205 -151.5 -329.5t-401.5 -124.5q-131 0 -246 26z" />
<glyph unicode="6" d="M106 541q0 410 183.5 609.5t496.5 199.5q78 0 121 -7v-161q-68 10 -135 10q-383 0 -467 -428q-14 -72 -18 -100h2q104 174 332 174q195 0 304 -109.5t109 -279.5q0 -211 -127 -340t-336 -129q-217 0 -341 147t-124 414zM309 432q0 -131 74 -216t205 -85q121 0 189.5 79 t68.5 208q0 121 -68.5 194.5t-195.5 73.5q-121 0 -197 -80t-76 -174z" />
<glyph unicode="7" d="M115 1151v180h899v-160q-307 -573 -512 -1171h-215q231 635 514 1155q-94 -4 -506 -4h-180z" />
<glyph unicode="8" d="M111 313q0 117 75.5 199t208.5 160q-125 63 -188.5 140t-63.5 187q0 154 120 253.5t310 99.5q188 0 298 -90.5t110 -233.5q0 -104 -66.5 -181t-187.5 -149q135 -70 211 -149.5t76 -206.5q0 -164 -131 -263t-332 -99t-320.5 91t-119.5 242zM303 328q0 -88 70.5 -143.5 t195.5 -55.5q109 0 180.5 52.5t71.5 142.5q0 51 -20.5 93t-64.5 75.5t-83 55t-104 52.5q-119 -66 -182.5 -127t-63.5 -145zM334 1016q0 -80 54 -132.5t185 -115.5q109 61 164.5 115.5t55.5 128.5q0 90 -63.5 141t-170.5 51q-104 0 -164.5 -54t-60.5 -134z" />
<glyph unicode="9" d="M92 889q0 209 128 336t331 127q217 0 339 -138t122 -423q0 -416 -184.5 -612.5t-497.5 -196.5q-90 0 -164 14v166q82 -20 184 -21q381 0 453 400q10 61 18 98h-2q-104 -152 -319 -152q-193 0 -300.5 112t-107.5 290zM279 918q0 -125 68.5 -199t189.5 -74 q125 0 197.5 73.5t72.5 182.5q0 133 -70.5 216t-199.5 83q-119 0 -188.5 -81t-69.5 -201z" />
<glyph unicode=":" horiz-adv-x="585" d="M197 108.5q0 51.5 36.5 89.5t90 38t90.5 -38t37 -89.5t-37 -89t-90.5 -37.5t-90 37.5t-36.5 89zM197 708.5q0 53.5 36.5 90.5t90 37t90.5 -37t37 -90.5t-37 -90t-90.5 -36.5t-90 36.5t-36.5 90z" />
<glyph unicode=";" horiz-adv-x="585" d="M145 -246q174 186 88 295q-43 53 -14 117.5t103 64.5q80 0 114.5 -73.5t-15.5 -205.5t-198 -267zM197 708.5q0 53.5 36.5 90.5t90 37t90.5 -37t37 -90.5t-37 -90t-90.5 -36.5t-90 36.5t-36.5 90z" />
<glyph unicode="&#x3c;" d="M147 618l648 582l118 -119l-530 -460l530 -455l-118 -127z" />
<glyph unicode="=" d="M115 358v152h897v-152h-897zM115 709v151h897v-151h-897z" />
<glyph unicode="&#x3e;" d="M213 158l530 460l-530 455l119 127l647 -579l-647 -582z" />
<glyph unicode="?" horiz-adv-x="911" d="M172 1286l23 168q274 -8 433.5 -122.5t159.5 -274.5q0 -78 -30.5 -143.5t-73.5 -107.5t-91 -91t-83 -93t-46 -117t15 -161h-178q-33 96 -24.5 175t40 131t77.5 102.5t89 88.5t73 90t30 107q0 102 -113 171t-301 77zM268 102.5q0 51.5 36 86t87 34.5q53 0 89 -34.5t36 -86 t-36 -86t-89 -34.5q-51 0 -87 34.5t-36 86z" />
<glyph unicode="@" horiz-adv-x="2002" d="M176 575q0 399 262 662.5t635 263.5q180 0 323.5 -54t231.5 -148.5t134 -213.5t46 -254q0 -266 -130 -416.5t-335 -150.5q-119 0 -174 65.5t-41 157.5h-6q-29 -76 -118 -149.5t-189 -73.5q-201 0 -201 277q0 238 121 393.5t344 155.5q139 0 250 -29l-78 -436 q-37 -209 121 -209q119 0 193.5 105.5t74.5 299.5q0 104 -32.5 196.5t-98 169.5t-180.5 122t-266 45q-303 0 -510 -213t-207 -541q0 -293 163 -458t470 -165q172 0 344 54l27 -150q-178 -57 -394 -57q-369 0 -574.5 201.5t-205.5 549.5zM770 573q0 -158 88 -157 q82 0 161 110.5t118 313.5l22 108q-49 12 -119 13q-88 0 -152.5 -67t-91 -152t-26.5 -169z" />
<glyph unicode="A" horiz-adv-x="1259" d="M20 0l504 1382h209l508 -1382h-211l-115 324h-587l-115 -324h-193zM377 473h489l-184 510q-31 84 -59 188h-5q-27 -98 -57 -186z" />
<glyph unicode="B" horiz-adv-x="1167" d="M174 0v1382q301 6 404 7q219 0 330.5 -87.5t111.5 -244.5q0 -111 -63.5 -197t-174.5 -125v-4q137 -23 209 -112.5t72 -204.5q0 -55 -13.5 -108.5t-51 -111t-95 -100.5t-154 -71.5t-221.5 -28.5q-47 0 -177 3t-177 3zM362 158q57 -10 177 -11q162 0 243.5 71t81.5 190 q0 235 -369 235h-3q-96 0 -130 -2v-483zM362 786q39 -2 125 -2q168 0 252 62.5t84 179.5q0 211 -276 211q-74 0 -185 -4v-447z" />
<glyph unicode="C" horiz-adv-x="1193" d="M94 657q0 334 170 536t506 202q170 0 317 -43l-30 -172q-156 53 -307 53q-225 0 -338 -151.5t-113 -393.5q0 -536 467 -536h2q164 0 303 69l31 -164q-176 -73 -374 -73h-5q-319 0 -474 182t-155 491z" />
<glyph unicode="D" horiz-adv-x="1388" d="M174 0v1380q33 0 114 3t156.5 4.5t143.5 1.5q706 0 706 -682q0 -346 -210 -530.5t-560 -184.5q-74 0 -188.5 4t-161.5 4zM362 164q76 -12 183 -12q254 0 402.5 136t148.5 406q0 541 -527 541q-53 0 -207 -6v-1065z" />
<glyph unicode="E" horiz-adv-x="1026" d="M174 0v1382h711v-155h-523v-439h498v-151h-498v-479h523v-158h-711z" />
<glyph unicode="F" horiz-adv-x="960" d="M174 0v1382h705v-155h-517v-449h490v-151h-490v-627h-188z" />
<glyph unicode="G" horiz-adv-x="1396" d="M88 664q0 324 202 530.5t541 206.5q193 0 383 -60l-40 -170q-176 68 -359 68q-225 0 -375.5 -144.5t-150.5 -408.5q0 -256 138 -398.5t374 -142.5q123 0 243 37v523h187v-644q-212 -79 -451 -79h-6q-315 0 -500.5 181t-185.5 501z" />
<glyph unicode="H" horiz-adv-x="1429" d="M174 0v1382h188v-585h705v585h188v-1382h-188v637h-705v-637h-188z" />
<glyph unicode="I" horiz-adv-x="536" d="M174 0v1382h188v-1382h-188z" />
<glyph unicode="J" horiz-adv-x="673" d="M2 2v164q68 -23 141 -23q88 0 129 49.5t41 180.5v1009h189v-1022q0 -374 -344 -374h-2q-84 0 -154 16z" />
<glyph unicode="K" horiz-adv-x="1196" d="M174 0v1382h188v-651l549 651h232l-584 -667l606 -715h-256l-547 684v-684h-188z" />
<glyph unicode="L" horiz-adv-x="872" d="M174 0v1382h188v-1220h496v-162h-684z" />
<glyph unicode="M" horiz-adv-x="1820" d="M98 0l203 1382h231l291 -870q49 -150 78 -274h4q41 160 76 262l299 882h233l209 -1382h-198l-117 799q-33 231 -43 340h-4q-29 -129 -68 -250l-297 -889h-200l-281 831q-51 156 -88 308h-2q-6 -94 -39 -359l-94 -780h-193z" />
<glyph unicode="N" horiz-adv-x="1447" d="M174 0v1382h248l514 -829q72 -117 170 -303q-14 297 -14 739v393h182v-1382h-246l-526 856q-78 123 -158 287q14 -258 14 -699v-444h-184z" />
<glyph unicode="O" horiz-adv-x="1443" d="M86 676q0 336 187.5 531.5t467.5 195.5q285 0 451 -180.5t166 -516t-187.5 -531t-468.5 -195.5q-303 0 -459.5 186t-156.5 510zM287 702q0 -256 109.5 -405.5t322.5 -149.5q182 0 310 141.5t128 395.5q0 264 -113.5 408.5t-322.5 144.5q-182 0 -308 -142.5t-126 -392.5z " />
<glyph unicode="P" horiz-adv-x="1073" d="M174 0v1382q205 8 340 9q236 0 365 -110t129 -296q0 -203 -149.5 -332t-385.5 -129q-74 0 -111 4v-528h-188zM362 688q47 -8 113 -8q154 2 245 79t91 208q0 268 -317 268q-92 0 -132 -2v-545z" />
<glyph unicode="Q" horiz-adv-x="1441" d="M86 676q0 336 187.5 531.5t467.5 195.5q285 0 451 -180.5t166 -516t-187.5 -531t-468.5 -195.5q-303 0 -459.5 186t-156.5 510zM287 702q0 -256 109.5 -405.5t322.5 -149.5q182 0 310 141.5t128 395.5q0 264 -113.5 408.5t-322.5 144.5q-182 0 -308 -142.5t-126 -392.5z M655 -147q45 5 96 5q133 0 299 -38q161 -37 289 -37q53 0 101 6v-168q-72 -11 -140 -11q-75 0 -145 13q-135 25 -258 53q-78 17 -154 17q-44 0 -88 -6v166z" />
<glyph unicode="R" horiz-adv-x="1132" d="M174 0v1382q125 8 346 9q469 0 469 -361q0 -170 -115.5 -273.5t-289.5 -115.5q12 -16 55 -68.5t63 -78.5l377 -494h-239l-453 621h-25v-621h-188zM362 762q41 -4 117 -4q147 0 230.5 67.5t83.5 180.5q0 123 -76 177t-230 54q-51 0 -125 -4v-471z" />
<glyph unicode="S" horiz-adv-x="1030" d="M104 1010q0 174 128 282.5t356 108.5q137 0 250 -27l-23 -166q-121 37 -237 37q-137 0 -208 -57.5t-71 -157.5q0 -82 65.5 -136t157.5 -89t185.5 -76t159 -121.5t65.5 -201.5q0 -186 -141.5 -305t-370.5 -119q-168 0 -303 38l22 181q139 -55 291 -56q131 0 215 57.5 t84 178.5q0 72 -46 124t-115.5 79.5t-150.5 62.5t-150.5 73t-116 112.5t-46.5 177.5z" />
<glyph unicode="T" horiz-adv-x="1056" d="M37 1225v157h985v-157h-399v-1225h-189v1225h-397z" />
<glyph unicode="U" horiz-adv-x="1419" d="M174 465v917h188v-903q0 -162 75 -253t268 -91q184 0 269 87t85 292v868h184v-854q0 -270 -140 -409t-411 -139q-156 0 -262 39.5t-159.5 112.5t-75 151.5t-21.5 181.5z" />
<glyph unicode="V" horiz-adv-x="1265" d="M23 1382h208l310 -888q66 -199 88 -283h4q35 133 96 297l318 874h192l-508 -1382h-211z" />
<glyph unicode="W" horiz-adv-x="1949" d="M70 1382h200l234 -901q33 -121 55 -266h2q23 135 55 256l256 911h213l265 -919q35 -119 55 -244h2q23 131 47 225l240 938h186l-364 -1382h-232l-264 930q-31 109 -51 239h-2q-14 -117 -49 -237l-259 -932h-225z" />
<glyph unicode="X" horiz-adv-x="1226" d="M35 0l454 713l-426 669h218l327 -528l322 528h213l-420 -663l469 -719h-236l-352 571l-350 -571h-219z" />
<glyph unicode="Y" horiz-adv-x="1099" d="M18 1382h207l219 -467q59 -123 105 -239h2q33 84 119 264l213 442h196l-440 -884v-498h-188v498z" />
<glyph unicode="Z" horiz-adv-x="1103" d="M94 0v139l580 914q78 119 112 166q-131 -4 -301 -5h-370v168h891v-143l-611 -950l-82 -121q43 4 344 4h357v-172h-920z" />
<glyph unicode="[" horiz-adv-x="659" d="M176 -408v1987h406v-141h-234v-1700h234v-146h-406z" />
<glyph unicode="\" horiz-adv-x="905" d="M23 1550h178l717 -1880h-179z" />
<glyph unicode="]" horiz-adv-x="659" d="M78 -262h233v1700h-233v141h405v-1987h-405v146z" />
<glyph unicode="^" d="M131 770l338 612h149l353 -610l-135 -70l-295 543l-283 -543z" />
<glyph unicode="_" d="M0 -365h1126v-145h-1126v145z" />
<glyph unicode="`" horiz-adv-x="755" d="M193 1401l100 123l287 -256l-80 -101z" />
<glyph unicode="a" horiz-adv-x="1067" d="M94 256q0 166 161 258t452 92v68q0 111 -51.5 165t-172.5 54q-158 0 -295 -76l-38 150q170 71 357 71h5q209 0 294 -87t85 -249v-409q0 -117 4 -293h-178q0 145 10 203h-4q-39 -96 -131 -158.5t-215 -62.5q-127 0 -205 75.5t-78 198.5zM274 283q0 -68 43 -112t113 -44 q119 0 198 98.5t79 225.5v26q-432 0 -433 -194z" />
<glyph unicode="b" horiz-adv-x="1142" d="M174 27v1468h184v-494q0 -113 -18 -190l4 -2q41 106 130 166.5t206 60.5q180 0 277.5 -123t97.5 -356q0 -266 -142.5 -418.5t-388.5 -152.5q-195 0 -350 41zM358 156q80 -25 181 -25q323 0 323 410q0 344 -225 344q-129 0 -204 -122t-75 -269v-338z" />
<glyph unicode="c" horiz-adv-x="890" d="M84 475q0 254 128 406.5t368 152.5q137 0 249 -43l-34 -157q-113 47 -232 47q-135 0 -209.5 -104.5t-74.5 -276.5q0 -356 288 -357q133 0 238 50l29 -154q-137 -55 -304 -55q-203 0 -324.5 114.5t-121.5 376.5z" />
<glyph unicode="d" horiz-adv-x="1140" d="M84 461q0 266 142.5 418.5t383.5 152.5q70 0 172 -10v473h185v-1495h-179q0 127 17 207l-4 2q-43 -104 -133 -165.5t-209 -61.5q-184 0 -279.5 125.5t-95.5 353.5zM504 133q129 0 203.5 121.5t74.5 271.5v338q-84 23 -180 23q-323 0 -323 -407q0 -347 225 -347z" />
<glyph unicode="e" horiz-adv-x="1040" d="M84 504q0 236 122 384t333 148q205 0 306 -120t101 -308q0 -33 -6 -94h-666v-26q0 -357 322 -357q156 0 291 62l26 -148q-158 -63 -352 -63q-477 0 -477 522zM281 645h477v14q0 107 -58 173q-62 70 -170 69q-100 0 -166.5 -69.5t-82.5 -186.5z" />
<glyph unicode="f" horiz-adv-x="716" d="M14 874v144h209v76q0 413 389 413h2q86 0 168 -18l-16 -154q-66 23 -150 23q-109 0 -158.5 -63.5t-49.5 -198.5v-78h282v-144h-282v-874h-185v874h-209z" />
<glyph unicode="g" horiz-adv-x="1107" d="M82 -219q0 86 48 157.5t122 112.5q-100 43 -100 152q0 53 30.5 100t81.5 72q-149 89 -149 277q0 165 115.5 274.5t316.5 109.5q68 0 143 -18h346v-146h-168q82 -66 82 -188q0 -164 -110.5 -266.5t-319.5 -102.5q-57 0 -108 15q-66 -31 -66 -86q0 -41 39 -58.5t135 -21.5 l187 -6q166 -6 254 -82t88 -213q0 -164 -152 -275.5t-387 -111.5q-199 0 -313.5 79.5t-114.5 225.5zM266 -186q0 -88 76 -140.5t199 -52.5q152 0 236.5 61.5t84.5 157.5q0 158 -209 164l-196 8q-43 0 -60 2q-131 -90 -131 -200zM297 672q0 -106 61.5 -164.5t173.5 -58.5 q111 0 173.5 59.5t62.5 163.5q0 106 -60.5 166.5t-168.5 60.5q-113 0 -177.5 -63.5t-64.5 -163.5z" />
<glyph unicode="h" horiz-adv-x="1177" d="M174 0v1495h184v-483q0 -135 -18 -203l4 -2q45 106 137 167.5t217 61.5q307 0 308 -325v-711h-185v655q0 117 -39 173.5t-135 56.5q-125 0 -207 -114t-82 -284v-487h-184z" />
<glyph unicode="i" horiz-adv-x="532" d="M143 1339.5q0 51.5 36 86t87 34.5t87 -35t36 -86q0 -49 -36 -83.5t-87 -34.5t-87 33.5t-36 85zM174 0v1018h184v-1018h-184z" />
<glyph unicode="j" horiz-adv-x="544" d="M-121 -502l17 162q68 -25 129 -25q94 0 128.5 49.5t34.5 186.5v1147h183v-1131q0 -211 -78 -309t-273 -98q-80 0 -141 18zM158 1339.5q0 51.5 35.5 86t87.5 34.5q49 0 84.5 -35t35.5 -86q0 -49 -35.5 -83.5t-84.5 -34.5q-51 0 -87 33.5t-36 85z" />
<glyph unicode="k" horiz-adv-x="1009" d="M174 0v1495h184v-924l359 447h223l-391 -465l422 -553h-236l-377 524v-524h-184z" />
<glyph unicode="l" horiz-adv-x="532" d="M174 0v1495h184v-1495h-184z" />
<glyph unicode="m" horiz-adv-x="1800" d="M174 0v1018h178q0 -133 -16 -215l4 -2q45 109 139 172t215 63q76 0 132.5 -23.5t86 -61.5t44 -73.5t18.5 -72.5q41 90 128 160.5t220 70.5q303 0 303 -334v-702h-184v653q0 115 -36 173.5t-130 58.5q-115 0 -200 -111.5t-85 -290.5v-483h-182v653q0 111 -35 171.5 t-131 60.5q-119 0 -202 -115t-83 -287v-483h-184z" />
<glyph unicode="n" horiz-adv-x="1177" d="M174 0v1018h178q0 -133 -16 -215h4q45 109 138 171t220 62q307 0 308 -325v-711h-185v655q0 117 -39 173.5t-135 56.5q-125 0 -207 -114t-82 -284v-487h-184z" />
<glyph unicode="o" horiz-adv-x="1116" d="M80 500q0 229 135 382.5t360 153.5q209 0 334 -124t125 -386q0 -233 -137 -388.5t-360 -155.5q-215 0 -336 129t-121 389zM272 518q0 -184 74 -282.5t213 -98.5q121 0 202 96.5t81 282.5q0 176 -72 271.5t-211 95.5q-121 0 -204 -93.5t-83 -271.5z" />
<glyph unicode="p" horiz-adv-x="1142" d="M174 -506v1524h178q0 -131 -16 -207l4 -2q43 106 132 166.5t210 60.5q178 0 275.5 -124t97.5 -355q0 -270 -138.5 -419.5t-386.5 -149.5q-100 0 -172 12v-506h-184zM358 156q80 -25 181 -25q323 0 323 410q0 344 -225 344q-129 0 -204 -122t-75 -271v-336z" />
<glyph unicode="q" horiz-adv-x="1142" d="M88 459q0 268 142.5 421.5t394.5 153.5q162 0 344 -28v-1512h-183v529q0 111 15 182l-4 2q-41 -104 -130 -164.5t-202 -60.5q-182 0 -279.5 120.5t-97.5 356.5zM506 133q129 0 204.5 122.5t75.5 272.5v338q-88 20 -182 21q-321 0 -321 -407q0 -347 223 -347z" />
<glyph unicode="r" horiz-adv-x="727" d="M174 0v1018h178q0 -127 -22 -242h4q37 122 124 198q73 64 184 64q20 0 42 -2l-8 -182q-33 6 -62 6q-114 0 -177 -90q-79 -113 -79 -360v-410h-184z" />
<glyph unicode="s" horiz-adv-x="870" d="M102 731q0 135 104.5 220t301.5 85q94 0 197 -20l-15 -152q-88 31 -198 31q-199 0 -199 -145q0 -61 49 -98.5t118.5 -57t139.5 -46t119 -86t49 -155.5q0 -143 -116.5 -234t-313.5 -91q-133 0 -225 26l16 164q100 -41 225 -41q100 0 160.5 42t60.5 114q0 61 -49 98 t-118.5 55.5t-138 44t-118 87t-49.5 159.5z" />
<glyph unicode="t" horiz-adv-x="759" d="M6 874v144h209v330l184 51v-381h285v-144h-285v-520q0 -127 30 -170t116 -43q70 0 129 17l18 -152q-90 -22 -196 -22h-9q-154 0 -213 68.5t-59 236.5v585h-209z" />
<glyph unicode="u" horiz-adv-x="1177" d="M174 307v711h182v-656q0 -115 39 -172t135 -57q125 0 208 113.5t83 283.5v488h183v-1018h-179q0 117 17 215h-4q-45 -109 -138.5 -171t-220.5 -62q-305 0 -305 325z" />
<glyph unicode="v" horiz-adv-x="995" d="M16 1018h207l215 -606q39 -113 60 -193h4q33 121 57 187l221 612h199l-389 -1018h-191z" />
<glyph unicode="w" horiz-adv-x="1624" d="M33 1018h203l155 -543q59 -209 74 -266h2q35 150 70 262l174 547h196l176 -541q51 -162 78 -270h2q35 145 70 262l164 549h194l-329 -1018h-207l-203 600q-27 80 -57 203h-2q-20 -92 -72 -256l-170 -547h-205z" />
<glyph unicode="x" horiz-adv-x="1060" d="M43 0l375 510l-357 508h226l252 -383l256 383h206l-350 -502l369 -516h-238l-258 391l-258 -391h-223z" />
<glyph unicode="y" horiz-adv-x="983" d="M-49 -510l20 164q53 -16 123 -16q86 0 151.5 55t116.5 196l41 111l-385 1018h209l193 -529q33 -92 78 -251h4q23 90 100 313l164 467h201l-418 -1104q-92 -244 -199.5 -340t-279.5 -96q-53 0 -119 12z" />
<glyph unicode="z" horiz-adv-x="915" d="M98 0v129l488 729q-115 -4 -269 -4h-208v164h692v-129l-482 -723q111 4 277 4h215v-170h-713z" />
<glyph unicode="{" horiz-adv-x="698" d="M59 575v146q123 6 170 52t47 169v240q0 397 320 397h37v-141q-106 0 -146.5 -53.5t-40.5 -196.5v-238q0 -264 -190 -299v-4q190 -29 190 -303v-356q0 -143 40 -196.5t147 -53.5v-146h-37q-172 0 -246 97.5t-74 302.5v358q0 121 -49 170t-168 55z" />
<glyph unicode="|" horiz-adv-x="583" d="M217 -506v2048h145v-2048h-145z" />
<glyph unicode="}" horiz-adv-x="692" d="M78 -262q106 0 146 53t40 197v356q0 274 191 303v4q-190 25 -191 291v246q0 143 -40 196.5t-146 53.5v141h37q319 0 319 -397v-232q0 -129 47 -176t170 -53v-146q-119 -6 -168 -55t-49 -170v-358q0 -205 -73.5 -302.5t-245.5 -97.5h-37v146z" />
<glyph unicode="~" d="M111 899v21q0 135 74.5 218t199.5 83q76 0 133 -36t85 -78t68 -78t87 -36q119 0 123 183h137v-21q0 -133 -74 -216t-199 -83q-63 0 -111 23.5t-78 56.5t-55.5 65.5t-57 56t-70.5 23.5q-121 0 -125 -182h-137z" />
<glyph unicode="&#xa1;" horiz-adv-x="655" d="M186 915.5q0 51.5 36 86t87 34.5t87 -34.5t36 -86t-36 -86t-87 -34.5t-87 34.5t-36 86zM199 -422l30 1096h156l33 -1096h-219z" />
<glyph unicode="&#xa2;" d="M162 674q0 193 107.5 316.5t299.5 156.5v184h144v-178q121 -4 233 -47l-35 -154q-113 51 -235 52q-150 0 -236 -83t-86 -241q0 -145 77 -230t241 -85q137 0 243 61l48 -147q-121 -59 -250 -68v-211h-144v211q-197 12 -302 132t-105 331z" />
<glyph unicode="&#xa3;" d="M111 588v143h196q-25 152 -24 225q0 395 405 396q125 0 246 -35l-41 -158q-119 41 -219 41q-205 0 -205 -223q0 -68 27 -246h325v-143h-307q12 -70 12 -137q0 -90 -36.5 -158t-118.5 -137q90 4 166 4h446v-160h-833v127q193 164 192 313q0 61 -14 148h-217z" />
<glyph unicode="&#xa4;" d="M123 223l149 185q-82 94 -82 266q0 158 93 256l-160 196l135 99l152 -207q68 37 168 37q94 0 163 -35l154 207l131 -101l-158 -198q68 -88 68 -242q0 -145 -82 -248l172 -213l-135 -102l-164 221q-80 -49 -180 -49q-76 0 -139 27l-148 -199zM356 678q0 -111 50.5 -178.5 t160.5 -67.5q84 0 143.5 68.5t59.5 183.5q0 233 -213 234q-86 0 -143.5 -66t-57.5 -174z" />
<glyph unicode="&#xa5;" d="M70 1331h204l193 -411q35 -74 94 -236h4q39 111 107 248l190 399h197l-361 -725h293v-125h-338v-143h338v-125h-338v-213h-186v213h-338v125h338v143h-338v125h295z" />
<glyph unicode="&#xa6;" horiz-adv-x="583" d="M217 268h145v-774h-145v774zM217 788v754h145v-754h-145z" />
<glyph unicode="&#xa7;" horiz-adv-x="1064" d="M147 694q0 168 162 291q-80 102 -80 211q0 135 93.5 223t275.5 88q78 0 154 -16l-15 -156q-70 20 -141 21q-172 0 -172 -148q0 -57 48 -122.5t115.5 -129t136.5 -132t117 -159t48 -184.5q0 -170 -162 -288q80 -109 80 -216q0 -131 -100.5 -223t-286.5 -92q-78 0 -162 23 l14 155q80 -25 154 -24q88 0 137 43t49 112q0 59 -48 124t-115.5 127.5t-136 130t-117 157.5t-48.5 184zM322 717q0 -35 13 -73t28.5 -65.5t54.5 -71.5t58.5 -64.5t76.5 -76t76 -73.5q86 60 86 164q0 45 -15.5 87t-52.5 88t-65.5 77.5t-86 88t-85.5 85.5q-88 -66 -88 -166z " />
<glyph unicode="&#xa8;" horiz-adv-x="1118" d="M236 1339q0 45 31.5 78t78.5 33q45 0 77 -32t32 -79q0 -45 -31 -76.5t-78 -31.5t-78.5 31.5t-31.5 76.5zM629 1339q0 45 31.5 78t78.5 33q45 0 77 -32t32 -79q0 -45 -31 -76.5t-78 -31.5t-78.5 31.5t-31.5 76.5z" />
<glyph unicode="&#xa9;" horiz-adv-x="1548" d="M82 684q0 285 200.5 485.5t487.5 200.5t487.5 -198.5t200.5 -483.5q0 -287 -200.5 -487.5t-487.5 -200.5q-291 0 -489.5 198.5t-198.5 485.5zM229 688q0 -225 159 -387t382 -162q225 0 384 160t159 385t-159 386t-384 161t-383 -159t-158 -384zM446 676q0 162 87.5 268.5 t269.5 106.5q88 0 162 -27l-17 -131q-66 33 -147 33q-197 0 -197 -244q0 -227 189 -227q86 0 159 30l21 -127q-94 -35 -203 -34q-162 0 -243 95t-81 257z" />
<glyph unicode="&#xaa;" horiz-adv-x="796" d="M98 864q0 117 107.5 183.5t296.5 66.5v37q0 123 -133 123q-113 0 -215 -53l-15 135q113 43 252 43q141 0 201.5 -63.5t60.5 -164.5q0 -68 -1 -168t-1 -122q0 -109 4 -179h-151q0 66 10 109l-4 2q-20 -51 -79.5 -88t-127.5 -37q-102 0 -153.5 48t-51.5 128zM117 432v146 h590v-146h-590zM250 889q0 -35 23.5 -56.5t64.5 -21.5q76 0 120 62.5t44 117.5v19q-252 0 -252 -121z" />
<glyph unicode="&#xab;" horiz-adv-x="1042" d="M111 600l233 373l139 -72l-188 -299l190 -295l-143 -74zM506 600l252 369l135 -72l-205 -295l207 -291l-139 -73z" />
<glyph unicode="&#xac;" d="M86 532v154h901v-475h-160v321h-741z" />
<glyph unicode="&#xad;" horiz-adv-x="675" d="M96 512v152h484v-152h-484z" />
<glyph unicode="&#xae;" horiz-adv-x="1150" d="M123 1083q0 186 132 316.5t320.5 130.5t319.5 -129.5t131 -317.5q0 -184 -133 -316t-318 -132q-190 0 -321 130t-131 318zM248 1085.5q0 -137.5 96 -236.5t231.5 -99t231.5 97t96 232q0 137 -96 236.5t-232 99.5q-137 0 -232 -96t-95 -233.5zM424 852v467h162 q160 0 159 -123q0 -115 -108 -135q10 -10 39 -60l88 -149h-123l-109 195h-8v-195h-100zM524 1112h29q45 0 65.5 21.5t20.5 50.5q0 57 -72 57h-43v-129z" />
<glyph unicode="&#xaf;" horiz-adv-x="808" d="M145 1262v139h519v-139h-519z" />
<glyph unicode="&#xb0;" horiz-adv-x="770" d="M109 1243q0 119 82.5 190.5t193.5 71.5q131 0 199.5 -72.5t68.5 -185.5q0 -119 -84 -190.5t-196 -71.5q-121 0 -192.5 69.5t-71.5 188.5zM254 1245q0 -66 35 -102.5t90 -36.5q57 0 94 39t37 100q0 55 -32 98t-97 43q-55 0 -91 -39.5t-36 -101.5z" />
<glyph unicode="&#xb1;" d="M86 688v152h389v401h176v-401h389v-152h-389v-403h-176v403h-389zM90 0v154h946v-154h-946z" />
<glyph unicode="&#xb2;" horiz-adv-x="649" d="M94 729v107l150 133q66 57 89 93t23 75t-26.5 63.5t-73.5 24.5q-66 0 -115 -39l-41 114q90 47 195 48q115 0 172 -53.5t57 -131.5q0 -109 -131 -223l-98 -84h250v-127h-451z" />
<glyph unicode="&#xb3;" horiz-adv-x="626" d="M94 729l21 109q57 -16 108 -17q125 0 125 84q0 53 -46 71.5t-161 6.5v98h43q152 0 152 88q0 74 -96 74q-55 0 -109 -26l-29 98q72 33 177 33q109 0 162 -45.5t53 -112.5q0 -100 -95 -146q55 -8 86 -46t31 -91q0 -94 -75.5 -144t-211.5 -50q-70 0 -135 16z" />
<glyph unicode="&#xb4;" horiz-adv-x="796" d="M199 1266l286 258l101 -123l-307 -234z" />
<glyph unicode="&#xb6;" horiz-adv-x="1179" d="M135 948q0 190 127 312t330 122v-876q-223 0 -340 125t-117 317zM596 -53h149v1435h312v-143h-146v-1436h-315v144z" />
<glyph unicode="&#xb7;" horiz-adv-x="479" d="M109 608q0 55 37.5 93t93 38t93.5 -38t38 -93q0 -53 -38 -92t-93.5 -39t-93 39t-37.5 92z" />
<glyph unicode="&#xb8;" horiz-adv-x="819" d="M336 -481q55 70 77.5 121t13.5 104t-56 113l157 61q143 -188 -43 -399h-149z" />
<glyph unicode="&#xb9;" horiz-adv-x="632" d="M90 1251l193 80h141v-602h-156v473l-143 -65z" />
<glyph unicode="&#xba;" horiz-adv-x="858" d="M96 1044q0 158 95.5 257.5t242.5 99.5q137 0 228.5 -79t91.5 -267q0 -164 -97.5 -264.5t-248.5 -100.5q-311 0 -312 354zM127 432v146h598v-146h-598zM260 1049q0 -221 160 -222q78 0 124 56.5t46 169.5q0 213 -164 213q-70 0 -118 -54.5t-48 -162.5z" />
<glyph unicode="&#xbb;" horiz-adv-x="1042" d="M147 309l207 295l-204 291l139 74l250 -363l-256 -368zM559 305l189 299l-189 295l143 74l230 -367l-236 -373z" />
<glyph unicode="&#xbc;" horiz-adv-x="1447" d="M90 1251l193 80h141v-602h-156v473l-143 -65zM113 43l1017 1327l119 -86l-1018 -1327zM782 217l232 385h213v-375h104v-114h-104v-113h-142v113h-294zM918 227h167v275z" />
<glyph unicode="&#xbd;" horiz-adv-x="1456" d="M90 1251l193 80h141v-602h-156v473l-143 -65zM113 43l1017 1327l119 -86l-1018 -1327zM874 0v104l150 136q66 55 89.5 91t23.5 74.5t-27 64.5t-74 26q-61 0 -114 -39l-41 114q98 47 194 47q115 0 172.5 -53t57.5 -131q0 -113 -131 -223l-99 -86h250v-125h-451z" />
<glyph unicode="&#xbe;" horiz-adv-x="1449" d="M98 727l21 109q53 -14 108 -15q127 0 127 84q0 53 -47 71.5t-162 6.5v98h43q152 0 152 88q0 74 -96 74q-55 0 -109 -26l-29 98q72 33 177 33q109 0 162 -45.5t53 -112.5q0 -100 -95 -146q55 -8 86 -46t31 -91q0 -94 -75.5 -145t-211.5 -51q-70 0 -135 16zM117 43 l1018 1327l118 -86l-1017 -1327zM784 217l232 385h215v-375h104v-114h-104v-113h-144v113h-294zM920 227h170v275z" />
<glyph unicode="&#xbf;" horiz-adv-x="911" d="M123 -39q0 78 30.5 143.5t73.5 107.5t91.5 91t83 93t47 117t-16.5 161h180q33 -96 24 -175t-41 -131.5t-78 -102.5t-89 -88t-72.5 -90t-29.5 -107q0 -102 112.5 -171t302.5 -77l-24 -168q-274 8 -434 122.5t-160 274.5zM397 915.5q0 51.5 36 86t87 34.5t87 -34.5t36 -86 t-36 -86t-87 -34.5t-87 34.5t-36 86z" />
<glyph unicode="&#xc0;" horiz-adv-x="1259" d="M20 0l504 1382h209l508 -1382h-211l-115 324h-587l-115 -324h-193zM315 1599l54 144l372 -152l-36 -106zM377 473h489l-184 510q-31 84 -59 188h-5q-27 -98 -57 -186z" />
<glyph unicode="&#xc1;" horiz-adv-x="1259" d="M20 0l504 1382h209l508 -1382h-211l-115 324h-587l-115 -324h-193zM377 473h489l-184 510q-31 84 -59 188h-5q-27 -98 -57 -186zM487 1591l373 152l53 -144l-389 -114z" />
<glyph unicode="&#xc2;" horiz-adv-x="1259" d="M20 0l504 1382h209l508 -1382h-211l-115 324h-587l-115 -324h-193zM301 1581l322 174l327 -170l-55 -102l-277 129l-270 -129zM377 473h489l-184 510q-31 84 -59 188h-5q-27 -98 -57 -186z" />
<glyph unicode="&#xc3;" horiz-adv-x="1259" d="M20 0l504 1382h209l508 -1382h-211l-115 324h-587l-115 -324h-193zM262 1587q84 152 230 152q76 0 154.5 -53.5t115.5 -53.5q70 0 129 90l94 -67q-86 -150 -229 -150q-76 0 -155 53.5t-116 53.5q-74 0 -129 -92zM377 473h489l-184 510q-31 84 -59 188h-5 q-27 -98 -57 -186z" />
<glyph unicode="&#xc4;" horiz-adv-x="1259" d="M20 0l504 1382h209l508 -1382h-211l-115 324h-587l-115 -324h-193zM301 1599q0 43 29.5 73t72.5 30t74 -30t31 -73t-31 -72.5t-74 -29.5t-72.5 29.5t-29.5 72.5zM377 473h489l-184 510q-31 84 -59 188h-5q-27 -98 -57 -186zM739 1599q0 43 30 73t73 30t72.5 -30t29.5 -73 t-29.5 -72.5t-72.5 -29.5t-73 29.5t-30 72.5z" />
<glyph unicode="&#xc5;" horiz-adv-x="1259" d="M20 0l482 1319q-102 55 -103 178q0 94 68 159.5t164 65.5q98 0 165.5 -65.5t67.5 -159.5q0 -55 -29.5 -104.5t-78.5 -75.5l485 -1317h-211l-115 324h-587l-115 -324h-193zM377 473h487l-178 496q-29 59 -63 200h-5q-29 -113 -63 -202zM518 1497q0 -47 33 -82t80 -35 t79.5 35t32.5 82t-32.5 82t-79.5 35t-80 -35t-33 -82z" />
<glyph unicode="&#xc6;" horiz-adv-x="1599" d="M-88 0l735 1382h791v-155h-512v-439h491v-151h-491v-479h530v-158h-715v334h-458l-174 -334h-197zM352 483h389v742h-4q-80 -178 -135 -281z" />
<glyph unicode="&#xc7;" horiz-adv-x="1193" d="M94 657q0 334 170 536t506 202q170 0 317 -43l-30 -172q-156 53 -307 53q-225 0 -338 -151.5t-113 -393.5q0 -537 469 -536q164 0 303 69l31 -164q-178 -74 -379 -73q-319 0 -474 182t-155 491zM539 -481q55 70 77.5 121t13.5 104t-56 113l157 61q143 -188 -43 -399h-149 z" />
<glyph unicode="&#xc8;" horiz-adv-x="1026" d="M174 0v1382h711v-155h-523v-439h498v-151h-498v-479h523v-158h-711zM233 1599l54 144l372 -152l-36 -106z" />
<glyph unicode="&#xc9;" horiz-adv-x="1026" d="M174 0v1382h711v-155h-523v-439h498v-151h-498v-479h523v-158h-711zM399 1591l373 152l53 -144l-389 -114z" />
<glyph unicode="&#xca;" horiz-adv-x="1026" d="M174 0v1382h711v-155h-523v-439h498v-151h-498v-479h523v-158h-711zM199 1581l321 174l328 -170l-55 -102l-277 129l-270 -129z" />
<glyph unicode="&#xcb;" horiz-adv-x="1026" d="M174 0v1382h711v-155h-523v-439h498v-151h-498v-479h523v-158h-711zM197 1599q0 43 29.5 73t72.5 30t73.5 -30t30.5 -73t-30.5 -72.5t-73.5 -29.5t-72.5 29.5t-29.5 72.5zM635 1599q0 43 29.5 73t72.5 30t73 -30t30 -73t-30 -72.5t-73 -29.5t-72.5 29.5t-29.5 72.5z" />
<glyph unicode="&#xcc;" horiz-adv-x="536" d="M-20 1599l53 144l373 -152l-37 -106zM174 0v1382h188v-1382h-188z" />
<glyph unicode="&#xcd;" horiz-adv-x="536" d="M121 1591l373 152l53 -144l-389 -114zM174 0v1382h188v-1382h-188z" />
<glyph unicode="&#xce;" horiz-adv-x="536" d="M-53 1581l321 174l328 -170l-55 -102l-277 129l-270 -129zM174 0v1382h188v-1382h-188z" />
<glyph unicode="&#xcf;" horiz-adv-x="536" d="M-55 1599q0 43 29.5 73t72.5 30t74 -30t31 -73t-31 -72.5t-74 -29.5t-72.5 29.5t-29.5 72.5zM174 0v1382h188v-1382h-188zM383 1599q0 43 29.5 73t72.5 30t73 -30t30 -73t-30 -72.5t-73 -29.5t-72.5 29.5t-29.5 72.5z" />
<glyph unicode="&#xd0;" horiz-adv-x="1406" d="M2 639v143h193v598q35 0 114.5 3t155.5 4.5t141 1.5q707 0 707 -682q0 -346 -210 -530.5t-560 -184.5q-74 0 -187.5 4t-160.5 4v639h-193zM381 160q66 -8 184 -8q254 0 402.5 135t148.5 405q0 543 -526 543q-49 0 -209 -6v-447h287v-143h-287v-479z" />
<glyph unicode="&#xd1;" horiz-adv-x="1447" d="M174 0v1382h248l514 -829q72 -117 170 -303q-14 297 -14 739v393h182v-1382h-246l-526 856q-78 123 -158 287q14 -258 14 -699v-444h-184zM346 1587q84 152 229 152q76 0 155 -53.5t116 -53.5q70 0 129 90l94 -67q-86 -150 -229 -150q-76 0 -155 53.5t-116 53.5 q-74 0 -129 -92z" />
<glyph unicode="&#xd2;" horiz-adv-x="1443" d="M86 676q0 336 187.5 531.5t467.5 195.5q285 0 451 -180.5t166 -516t-187.5 -531t-468.5 -195.5q-303 0 -459.5 186t-156.5 510zM287 702q0 -256 109.5 -405.5t322.5 -149.5q182 0 310 141.5t128 395.5q0 264 -113.5 408.5t-322.5 144.5q-182 0 -308 -142.5t-126 -392.5z M432 1599l53 144l373 -152l-37 -106z" />
<glyph unicode="&#xd3;" horiz-adv-x="1443" d="M86 676q0 336 187.5 531.5t467.5 195.5q285 0 451 -180.5t166 -516t-187.5 -531t-468.5 -195.5q-303 0 -459.5 186t-156.5 510zM287 702q0 -256 109.5 -405.5t322.5 -149.5q182 0 310 141.5t128 395.5q0 264 -113.5 408.5t-322.5 144.5q-182 0 -308 -142.5t-126 -392.5z M600 1591l373 152l53 -144l-389 -114z" />
<glyph unicode="&#xd4;" horiz-adv-x="1443" d="M86 676q0 336 187.5 531.5t467.5 195.5q285 0 451 -180.5t166 -516t-187.5 -531t-468.5 -195.5q-303 0 -459.5 186t-156.5 510zM287 702q0 -256 109.5 -405.5t322.5 -149.5q182 0 310 141.5t128 395.5q0 264 -113.5 408.5t-322.5 144.5q-182 0 -308 -142.5t-126 -392.5z M416 1581l321 174l328 -170l-55 -102l-277 129l-270 -129z" />
<glyph unicode="&#xd5;" horiz-adv-x="1443" d="M86 676q0 336 187.5 531.5t467.5 195.5q285 0 451 -180.5t166 -516t-187.5 -531t-468.5 -195.5q-303 0 -459.5 186t-156.5 510zM287 702q0 -256 109.5 -405.5t322.5 -149.5q182 0 310 141.5t128 395.5q0 264 -113.5 408.5t-322.5 144.5q-182 0 -308 -142.5t-126 -392.5z M354 1587q84 152 230 152q76 0 154.5 -53.5t115.5 -53.5q70 0 129 90l94 -67q-86 -150 -229 -150q-76 0 -155 53.5t-115 53.5q-74 0 -129 -92z" />
<glyph unicode="&#xd6;" horiz-adv-x="1443" d="M86 676q0 336 187.5 531.5t467.5 195.5q285 0 451 -180.5t166 -516t-187.5 -531t-468.5 -195.5q-303 0 -459.5 186t-156.5 510zM287 702q0 -256 109.5 -405.5t322.5 -149.5q182 0 310 141.5t128 395.5q0 264 -113.5 408.5t-322.5 144.5q-182 0 -308 -142.5t-126 -392.5z M399 1599q0 43 30 73t73 30t73.5 -30t30.5 -73t-30.5 -72.5t-73.5 -29.5t-73 29.5t-30 72.5zM838 1599q0 43 29.5 73t72.5 30t72.5 -30t29.5 -73t-29.5 -72.5t-72.5 -29.5t-72.5 29.5t-29.5 72.5z" />
<glyph unicode="&#xd7;" d="M113 260l344 344l-344 342l112 113l342 -344l344 344l103 -103l-344 -342l344 -344l-113 -112l-344 344l-342 -344z" />
<glyph unicode="&#xd8;" horiz-adv-x="1443" d="M86 680q0 332 186.5 527.5t466.5 195.5q74 0 146 -17l71 199l142 -47l-72 -192q158 -70 245 -233t87 -411q0 -336 -186.5 -529t-475.5 -193q-86 0 -157 18l-78 -209l-139 45l75 209q-311 154 -311 637zM281 698q0 -348 180 -471l368 998q-66 16 -139 10 q-176 -12 -292.5 -152.5t-116.5 -384.5zM594 160q61 -18 135 -15q190 4 312 144.5t122 392.5q0 362 -200 485z" />
<glyph unicode="&#xd9;" horiz-adv-x="1419" d="M174 465v917h188v-903q0 -162 75 -253t268 -91q184 0 269 87t85 292v868h184v-854q0 -270 -140 -409t-411 -139q-156 0 -262 39.5t-159.5 112.5t-75 151.5t-21.5 181.5zM416 1599l53 144l373 -152l-37 -106z" />
<glyph unicode="&#xda;" horiz-adv-x="1419" d="M174 465v917h188v-903q0 -162 75 -253t268 -91q184 0 269 87t85 292v868h184v-854q0 -270 -140 -409t-411 -139q-156 0 -262 39.5t-159.5 112.5t-75 151.5t-21.5 181.5zM575 1591l373 152l53 -144l-389 -114z" />
<glyph unicode="&#xdb;" horiz-adv-x="1419" d="M174 465v917h188v-903q0 -162 75 -253t268 -91q184 0 269 87t85 292v868h184v-854q0 -270 -140 -409t-411 -139q-156 0 -262 39.5t-159.5 112.5t-75 151.5t-21.5 181.5zM385 1581l322 174l327 -170l-55 -102l-277 129l-270 -129z" />
<glyph unicode="&#xdc;" horiz-adv-x="1419" d="M174 465v917h188v-903q0 -162 75 -253t268 -91q184 0 269 87t85 292v868h184v-854q0 -270 -140 -409t-411 -139q-156 0 -262 39.5t-159.5 112.5t-75 151.5t-21.5 181.5zM375 1599q0 43 29.5 73t72.5 30t74 -30t31 -73t-31 -72.5t-74 -29.5t-72.5 29.5t-29.5 72.5z M813 1599q0 43 29.5 73t72.5 30t73 -30t30 -73t-30 -72.5t-73 -29.5t-72.5 29.5t-29.5 72.5z" />
<glyph unicode="&#xdd;" horiz-adv-x="1099" d="M18 1382h207l219 -467q59 -123 105 -239h2q33 84 119 264l213 442h196l-440 -884v-498h-188v498zM436 1591l373 152l53 -144l-389 -114z" />
<glyph unicode="&#xde;" horiz-adv-x="1085" d="M174 0v1382h188v-208q111 4 173 4q244 0 379 -109.5t135 -316.5q0 -213 -157 -345.5t-405 -132.5q-74 0 -125 9v-283h-188zM362 438q55 -8 142 -8q164 0 257 80t93 227q0 287 -354 287q-82 0 -138 -10v-576z" />
<glyph unicode="&#xdf;" horiz-adv-x="1214" d="M174 0v1024q0 250 125 365.5t332 115.5q174 0 273.5 -75.5t99.5 -200.5q0 -76 -29 -132.5t-70 -87t-82 -57t-69.5 -62.5t-28.5 -85q0 -57 42 -101.5t101.5 -76t119 -69.5t101 -101.5t41.5 -151.5q0 -143 -111.5 -234t-295.5 -91q-109 0 -203 22l12 162q98 -35 189 -35 q111 0 166 44t55 110q0 59 -42 103t-100.5 76t-117.5 68.5t-101 101t-42 152.5q0 68 28.5 120t68.5 84t81 61.5t69.5 70.5t28.5 92q0 74 -53 112t-141 38q-262 0 -263 -328v-1034h-184z" />
<glyph unicode="&#xe0;" horiz-adv-x="1067" d="M94 256q0 166 161 258t452 92v68q0 111 -51.5 165t-172.5 54q-158 0 -295 -76l-38 150q172 72 362 71q209 0 294 -87t85 -249v-409q0 -117 4 -293h-178q0 145 10 203h-4q-39 -96 -131 -158.5t-215 -62.5q-127 0 -205 75.5t-78 198.5zM274 283q0 -68 43 -112t113 -44 q119 0 198 98.5t79 225.5v26q-432 0 -433 -194zM279 1401l100 123l287 -256l-80 -101z" />
<glyph unicode="&#xe1;" horiz-adv-x="1067" d="M94 256q0 166 161 258t452 92v68q0 111 -51.5 165t-172.5 54q-158 0 -295 -76l-38 150q172 72 362 71q209 0 294 -87t85 -249v-409q0 -117 4 -293h-178q0 145 10 203h-4q-39 -96 -131 -158.5t-215 -62.5q-127 0 -205 75.5t-78 198.5zM274 283q0 -68 43 -112t113 -44 q119 0 198 98.5t79 225.5v26q-432 0 -433 -194zM394 1266l286 258l101 -123l-307 -234z" />
<glyph unicode="&#xe2;" horiz-adv-x="1067" d="M94 256q0 166 161 258t452 92v68q0 111 -51.5 165t-172.5 54q-158 0 -295 -76l-38 150q172 72 362 71q209 0 294 -87t85 -249v-409q0 -117 4 -293h-178q0 145 10 203h-4q-39 -96 -131 -158.5t-215 -62.5q-127 0 -205 75.5t-78 198.5zM240 1253l286 271l283 -267l-82 -90 l-203 174l-205 -174zM274 283q0 -68 43 -112t113 -44q119 0 198 98.5t79 225.5v26q-432 0 -433 -194z" />
<glyph unicode="&#xe3;" horiz-adv-x="1067" d="M94 256q0 166 161 258t452 92v68q0 111 -51.5 165t-172.5 54q-158 0 -295 -76l-38 150q172 72 362 71q209 0 294 -87t85 -249v-409q0 -117 4 -293h-178q0 145 10 203h-4q-39 -96 -131 -158.5t-215 -62.5q-127 0 -205 75.5t-78 198.5zM142 1307q84 158 223 157 q72 0 147.5 -55t112.5 -55q68 0 123 94l90 -72q-84 -160 -223 -159q-72 0 -148 56t-112 56q-68 0 -121 -96zM274 283q0 -68 43 -112t113 -44q119 0 198 98.5t79 225.5v26q-432 0 -433 -194z" />
<glyph unicode="&#xe4;" horiz-adv-x="1067" d="M94 256q0 166 161 258t452 92v68q0 111 -51.5 165t-172.5 54q-158 0 -295 -76l-38 150q172 72 362 71q209 0 294 -87t85 -249v-409q0 -117 4 -293h-178q0 145 10 203h-4q-39 -96 -131 -158.5t-215 -62.5q-127 0 -205 75.5t-78 198.5zM216 1339q0 45 31.5 78t78.5 33 q45 0 77 -32t32 -79q0 -45 -31 -76.5t-78 -31.5t-78.5 31.5t-31.5 76.5zM274 283q0 -68 43 -112t113 -44q119 0 198 98.5t79 225.5v26q-432 0 -433 -194zM609 1339q0 45 31.5 78t78.5 33q45 0 77 -32t32 -79q0 -45 -31 -76.5t-78 -31.5t-78.5 31.5t-31.5 76.5z" />
<glyph unicode="&#xe5;" horiz-adv-x="1067" d="M94 256q0 166 161 258t452 92v68q0 111 -51.5 165t-172.5 54q-158 0 -295 -76l-38 150q172 72 362 71q209 0 294 -87t85 -249v-409q0 -117 4 -293h-178q0 145 10 203h-4q-39 -96 -131 -158.5t-215 -62.5q-127 0 -205 75.5t-78 198.5zM274 283q0 -68 43 -112t113 -44 q119 0 198 98.5t79 225.5v26q-432 0 -433 -194zM295 1356.5q0 96.5 68.5 161t162.5 64.5q98 0 166 -65t68 -161q0 -92 -69 -157.5t-165 -65.5q-98 0 -164.5 63.5t-66.5 160zM414 1356q0 -47 32.5 -80.5t79.5 -33.5t81 33.5t34 80.5t-34 82t-81 35t-79.5 -35t-32.5 -82z" />
<glyph unicode="&#xe6;" horiz-adv-x="1652" d="M94 256q0 166 161 258t452 92v68q0 111 -51.5 165t-172.5 54q-158 0 -295 -76l-38 150q172 72 362 71q242 0 315 -159h2q109 158 324 157q203 0 304.5 -120t101.5 -308q0 -33 -7 -94h-663q-14 -383 319 -383q156 0 291 62l27 -148q-158 -63 -352 -63q-164 0 -266.5 64.5 t-139.5 168.5h-2q-49 -100 -149.5 -166.5t-237.5 -66.5q-127 0 -206 75.5t-79 198.5zM274 283q0 -68 43 -112t113 -44q119 0 198 98.5t79 225.5v26q-432 0 -433 -194zM893 645h477q4 117 -57.5 186.5t-167.5 69.5q-100 0 -168 -69.5t-84 -186.5z" />
<glyph unicode="&#xe7;" horiz-adv-x="890" d="M84 475q0 254 128 406.5t368 152.5q137 0 249 -43l-34 -157q-113 47 -232 47q-135 0 -209.5 -104.5t-74.5 -276.5q0 -356 288 -357q133 0 238 50l29 -154q-137 -55 -304 -55q-203 0 -324.5 114.5t-121.5 376.5zM354 -481q55 70 77.5 121t13.5 104t-56 113l157 61 q143 -188 -43 -399h-149z" />
<glyph unicode="&#xe8;" horiz-adv-x="1040" d="M84 504q0 236 122 384t333 148q205 0 306 -120t101 -308q0 -33 -6 -94h-666q-12 -383 322 -383q156 0 291 62l26 -148q-158 -63 -352 -63q-477 0 -477 522zM281 645h477q4 117 -58.5 186.5t-169.5 69.5q-100 0 -166.5 -69.5t-82.5 -186.5zM287 1401l100 123l287 -256 l-80 -101z" />
<glyph unicode="&#xe9;" horiz-adv-x="1040" d="M84 504q0 236 122 384t333 148q205 0 306 -120t101 -308q0 -33 -6 -94h-666q-12 -383 322 -383q156 0 291 62l26 -148q-158 -63 -352 -63q-477 0 -477 522zM281 645h477q4 117 -58.5 186.5t-169.5 69.5q-100 0 -166.5 -69.5t-82.5 -186.5zM404 1266l286 258l101 -123 l-307 -234z" />
<glyph unicode="&#xea;" horiz-adv-x="1040" d="M84 504q0 236 122 384t333 148q205 0 306 -120t101 -308q0 -33 -6 -94h-666q-12 -383 322 -383q156 0 291 62l26 -148q-158 -63 -352 -63q-477 0 -477 522zM248 1253l286 271l283 -267l-82 -90l-203 174l-205 -174zM281 645h477q4 117 -58.5 186.5t-169.5 69.5 q-100 0 -166.5 -69.5t-82.5 -186.5z" />
<glyph unicode="&#xeb;" horiz-adv-x="1040" d="M84 504q0 236 122 384t333 148q205 0 306 -120t101 -308q0 -33 -6 -94h-666q-12 -383 322 -383q156 0 291 62l26 -148q-158 -63 -352 -63q-477 0 -477 522zM232 1339q0 45 31.5 78t78.5 33q45 0 77 -32t32 -79q0 -45 -31 -76.5t-78 -31.5t-78.5 31.5t-31.5 76.5zM281 645 h477q4 117 -58.5 186.5t-169.5 69.5q-100 0 -166.5 -69.5t-82.5 -186.5zM625 1339q0 45 31.5 78t78.5 33q45 0 77 -32t32 -79q0 -45 -31 -76.5t-78 -31.5t-78.5 31.5t-31.5 76.5z" />
<glyph unicode="&#xec;" horiz-adv-x="532" d="M58 1401l100 123l287 -256l-80 -101zM174 0v1018h184v-1018h-184z" />
<glyph unicode="&#xed;" horiz-adv-x="532" d="M97 1266l286 258l101 -123l-307 -234zM174 0v1018h184v-1018h-184z" />
<glyph unicode="&#xee;" horiz-adv-x="532" d="M-16 1253l286 271l283 -267l-82 -90l-203 174l-205 -174zM174 0v1018h184v-1018h-184z" />
<glyph unicode="&#xef;" horiz-adv-x="532" d="M-40 1339q0 45 31.5 78t78.5 33q45 0 77 -32t32 -79q0 -45 -31 -76.5t-78 -31.5t-78.5 31.5t-31.5 76.5zM174 0v1018h184v-1018h-184zM353 1339q0 45 31.5 78t78.5 33q45 0 77 -32t32 -79q0 -45 -31 -76.5t-78 -31.5t-78.5 31.5t-31.5 76.5z" />
<glyph unicode="&#xf0;" horiz-adv-x="1118" d="M82 500q0 231 132 382.5t349 151.5q158 0 215 -92q-8 16 -61 105q-53 92 -131 176l-209 -95l-78 97l193 86q-49 45 -166 135l184 78q88 -72 154 -140l204 91l80 -97l-200 -86q282 -338 282 -733q0 -283 -135 -430t-350 -147t-339 131t-124 387zM272 514q0 -180 78 -278.5 t215 -98.5q123 0 199 97.5t76 300.5q0 162 -73 255t-210 93q-121 0 -203 -94.5t-82 -274.5z" />
<glyph unicode="&#xf1;" horiz-adv-x="1177" d="M174 0v1018h178q0 -133 -16 -215h4q45 109 138 171t220 62q307 0 308 -325v-711h-185v655q0 117 -39 173.5t-135 56.5q-125 0 -207 -114t-82 -284v-487h-184zM248 1307q84 158 223 157q72 0 147.5 -55t112.5 -55q68 0 123 94l90 -72q-84 -160 -223 -159q-72 0 -148 56 t-112 56q-68 0 -121 -96z" />
<glyph unicode="&#xf2;" horiz-adv-x="1116" d="M80 500q0 229 135 382.5t360 153.5q209 0 334 -124t125 -386q0 -233 -137 -388.5t-360 -155.5q-215 0 -336 129t-121 389zM272 518q0 -184 74 -282.5t213 -98.5q121 0 202 96.5t81 282.5q0 176 -72 271.5t-211 95.5q-121 0 -204 -93.5t-83 -271.5zM324 1401l100 123 l287 -256l-80 -101z" />
<glyph unicode="&#xf3;" horiz-adv-x="1116" d="M80 500q0 229 135 382.5t360 153.5q209 0 334 -124t125 -386q0 -233 -137 -388.5t-360 -155.5q-215 0 -336 129t-121 389zM272 518q0 -184 74 -282.5t213 -98.5q121 0 202 96.5t81 282.5q0 176 -72 271.5t-211 95.5q-121 0 -204 -93.5t-83 -271.5zM435 1266l286 258 l101 -123l-307 -234z" />
<glyph unicode="&#xf4;" horiz-adv-x="1116" d="M80 500q0 229 135 382.5t360 153.5q209 0 334 -124t125 -386q0 -233 -137 -388.5t-360 -155.5q-215 0 -336 129t-121 389zM272 518q0 -184 74 -282.5t213 -98.5q121 0 202 96.5t81 282.5q0 176 -72 271.5t-211 95.5q-121 0 -204 -93.5t-83 -271.5zM273 1253l286 271 l283 -267l-82 -90l-203 174l-205 -174z" />
<glyph unicode="&#xf5;" horiz-adv-x="1116" d="M80 500q0 229 135 382.5t360 153.5q209 0 334 -124t125 -386q0 -233 -137 -388.5t-360 -155.5q-215 0 -336 129t-121 389zM191 1307q84 158 223 157q72 0 147.5 -55t112.5 -55q68 0 123 94l90 -72q-84 -160 -223 -159q-72 0 -148 56t-112 56q-68 0 -121 -96zM272 518 q0 -184 74 -282.5t213 -98.5q121 0 202 96.5t81 282.5q0 176 -72 271.5t-211 95.5q-121 0 -204 -93.5t-83 -271.5z" />
<glyph unicode="&#xf6;" horiz-adv-x="1116" d="M80 500q0 229 135 382.5t360 153.5q209 0 334 -124t125 -386q0 -233 -137 -388.5t-360 -155.5q-215 0 -336 129t-121 389zM252 1339q0 45 31.5 78t78.5 33q45 0 77 -32t32 -79q0 -45 -31 -76.5t-78 -31.5t-78.5 31.5t-31.5 76.5zM272 518q0 -184 74 -282.5t213 -98.5 q121 0 202 96.5t81 282.5q0 176 -72 271.5t-211 95.5q-121 0 -204 -93.5t-83 -271.5zM645 1339q0 45 31.5 78t78.5 33q45 0 77 -32t32 -79q0 -45 -31 -76.5t-78 -31.5t-78.5 31.5t-31.5 76.5z" />
<glyph unicode="&#xf7;" d="M86 532v154h954v-154h-954zM436 197q0 51 37 86.5t88 35.5t87 -35.5t36 -87t-36 -88t-87 -36.5q-53 0 -89 35.5t-36 89.5zM436 1020q0 51 37 87t88 36t87 -36t36 -87t-36 -87t-87 -36t-88 36t-37 87z" />
<glyph unicode="&#xf8;" horiz-adv-x="1116" d="M80 500q0 231 135 383.5t360 152.5q53 0 97 -8l73 193l119 -39l-73 -189q243 -117 243 -467q0 -233 -137 -388.5t-358 -155.5q-68 0 -129 16l-82 -211l-119 39l82 213q-211 125 -211 461zM258 518q0 -215 102 -307l254 672q-41 6 -75 4q-115 -6 -198 -95.5t-83 -273.5z M467 147q49 -16 108 -16q119 4 200 101.5t81 283.5q0 229 -127 320z" />
<glyph unicode="&#xf9;" horiz-adv-x="1177" d="M174 307v711h182v-656q0 -115 39 -172t135 -57q125 0 208 113.5t83 283.5v488h183v-1018h-179q0 117 17 215h-4q-45 -109 -138.5 -171t-220.5 -62q-305 0 -305 325zM340 1401l100 123l287 -256l-80 -101z" />
<glyph unicode="&#xfa;" horiz-adv-x="1177" d="M174 307v711h182v-656q0 -115 39 -172t135 -57q125 0 208 113.5t83 283.5v488h183v-1018h-179q0 117 17 215h-4q-45 -109 -138.5 -171t-220.5 -62q-305 0 -305 325zM465 1266l286 258l101 -123l-307 -234z" />
<glyph unicode="&#xfb;" horiz-adv-x="1177" d="M174 307v711h182v-656q0 -115 39 -172t135 -57q125 0 208 113.5t83 283.5v488h183v-1018h-179q0 117 17 215h-4q-45 -109 -138.5 -171t-220.5 -62q-305 0 -305 325zM299 1253l286 271l283 -267l-82 -90l-203 174l-205 -174z" />
<glyph unicode="&#xfc;" horiz-adv-x="1177" d="M174 307v711h182v-656q0 -115 39 -172t135 -57q125 0 208 113.5t83 283.5v488h183v-1018h-179q0 117 17 215h-4q-45 -109 -138.5 -171t-220.5 -62q-305 0 -305 325zM273 1339q0 45 31.5 78t78.5 33q45 0 77 -32t32 -79q0 -45 -31 -76.5t-78 -31.5t-78.5 31.5t-31.5 76.5z M666 1339q0 45 31.5 78t78.5 33q45 0 77 -32t32 -79q0 -45 -31 -76.5t-78 -31.5t-78.5 31.5t-31.5 76.5z" />
<glyph unicode="&#xfd;" horiz-adv-x="983" d="M-49 -510l20 164q53 -16 123 -16q86 0 151.5 55t116.5 196l41 111l-385 1018h209l193 -529q33 -92 78 -251h4q23 90 100 313l164 467h201l-418 -1104q-92 -244 -199.5 -340t-279.5 -96q-53 0 -119 12zM396 1266l286 258l101 -123l-307 -234z" />
<glyph unicode="&#xfe;" horiz-adv-x="1142" d="M174 -506v2001h184v-446q0 -150 -14 -228l4 -2q43 100 130 158.5t204 58.5q178 0 275.5 -124t97.5 -355q0 -270 -138.5 -419.5t-386.5 -149.5q-100 0 -172 12v-506h-184zM358 156q80 -25 181 -25q323 0 323 410q0 344 -225 344q-129 0 -204 -122t-75 -271v-336z" />
<glyph unicode="&#xff;" horiz-adv-x="983" d="M-49 -510l20 164q53 -16 123 -16q86 0 151.5 55t116.5 196l41 111l-385 1018h209l193 -529q33 -92 78 -251h4q23 90 100 313l164 467h201l-418 -1104q-92 -244 -199.5 -340t-279.5 -96q-53 0 -119 12zM185 1339q0 45 31.5 78t78.5 33q45 0 77 -32t32 -79q0 -45 -31 -76.5 t-78 -31.5t-78.5 31.5t-31.5 76.5zM578 1339q0 45 31.5 78t78.5 33q45 0 77 -32t32 -79q0 -45 -31 -76.5t-78 -31.5t-78.5 31.5t-31.5 76.5z" />
<glyph unicode="&#x152;" horiz-adv-x="1767" d="M86 676q0 334 186.5 530.5t464.5 196.5q98 0 207 -21h682v-155h-524v-439h500v-151h-500v-479h524v-158h-698q-123 -20 -226 -20q-303 0 -459.5 186t-156.5 510zM287 702q0 -256 109.5 -405.5t322.5 -149.5q100 0 196 29v1032q-96 29 -190 29q-184 0 -311 -142.5 t-127 -392.5z" />
<glyph unicode="&#x153;" horiz-adv-x="1785" d="M80 500q0 229 135 382.5t360 153.5q254 0 365 -192q117 193 346 192q205 0 306.5 -120t101.5 -308q0 -33 -6 -94h-666q-12 -383 321 -383q156 0 291 62l27 -148q-158 -63 -352 -63q-283 0 -394 206q-129 -207 -378 -206q-215 0 -336 129t-121 389zM272 518 q0 -184 74 -282.5t213 -98.5q121 0 202 96.5t81 282.5q0 176 -72 271.5t-211 95.5q-121 0 -204 -93.5t-83 -271.5zM1028 645h477q4 117 -58.5 186.5t-168.5 69.5q-100 0 -167 -69.5t-83 -186.5z" />
<glyph unicode="&#x178;" horiz-adv-x="1099" d="M18 1382h207l219 -467q59 -123 105 -239h2q33 84 119 264l213 442h196l-440 -884v-498h-188v498zM221 1599q0 43 30 73t73 30t73.5 -30t30.5 -73t-30.5 -72.5t-73.5 -29.5t-73 29.5t-30 72.5zM659 1599q0 43 30 73t73 30t72.5 -30t29.5 -73t-29.5 -72.5t-72.5 -29.5 t-73 29.5t-30 72.5z" />
<glyph unicode="&#x2c6;" horiz-adv-x="886" d="M154 1253l286 271l283 -267l-82 -90l-203 174l-205 -174z" />
<glyph unicode="&#x2dc;" horiz-adv-x="1015" d="M154 1307q84 158 223 157q72 0 147.5 -55t112.5 -55q68 0 123 94l90 -72q-84 -160 -223 -159q-72 0 -148 56t-112 56q-68 0 -121 -96z" />
<glyph unicode="&#x2000;" horiz-adv-x="877" />
<glyph unicode="&#x2001;" horiz-adv-x="1755" />
<glyph unicode="&#x2002;" horiz-adv-x="877" />
<glyph unicode="&#x2003;" horiz-adv-x="1755" />
<glyph unicode="&#x2004;" horiz-adv-x="585" />
<glyph unicode="&#x2005;" horiz-adv-x="438" />
<glyph unicode="&#x2006;" horiz-adv-x="292" />
<glyph unicode="&#x2007;" horiz-adv-x="292" />
<glyph unicode="&#x2008;" horiz-adv-x="219" />
<glyph unicode="&#x2009;" horiz-adv-x="351" />
<glyph unicode="&#x200a;" horiz-adv-x="97" />
<glyph unicode="&#x2010;" horiz-adv-x="675" d="M96 512v152h484v-152h-484z" />
<glyph unicode="&#x2011;" horiz-adv-x="675" d="M96 512v152h484v-152h-484z" />
<glyph unicode="&#x2012;" horiz-adv-x="675" d="M96 512v152h484v-152h-484z" />
<glyph unicode="&#x2013;" d="M0 530v160h1126v-160h-1126z" />
<glyph unicode="&#x2014;" horiz-adv-x="2048" d="M242 530v160h1564v-160h-1564z" />
<glyph unicode="&#x2018;" horiz-adv-x="497" d="M124 1061q-36 74 14 207t198 268l80 -72q-172 -186 -88 -293q45 -55 14 -119.5t-104 -64.5q-78 0 -114 74z" />
<glyph unicode="&#x2019;" horiz-adv-x="497" d="M80 1044q172 186 88 293q-45 55 -14.5 120t104.5 65q78 0 114 -74t-14.5 -207t-197.5 -268z" />
<glyph unicode="&#x201a;" horiz-adv-x="497" d="M80 -246q174 186 88 295q-45 53 -14.5 117.5t104.5 64.5q78 0 114 -73.5t-14.5 -205.5t-197.5 -267z" />
<glyph unicode="&#x201c;" horiz-adv-x="886" d="M124 1061q-36 74 14 207t198 268l80 -72q-172 -186 -88 -293q45 -55 14 -119.5t-104 -64.5q-78 0 -114 74zM513 1061q-36 74 14.5 207t197.5 268l80 -72q-172 -186 -88 -293q45 -55 14 -119.5t-104 -64.5q-78 0 -114 74z" />
<glyph unicode="&#x201d;" horiz-adv-x="886" d="M80 1044q172 186 88 293q-45 55 -14.5 120t104.5 65q78 0 114 -74t-14.5 -207t-197.5 -268zM469 1044q172 186 88 293q-45 55 -14.5 120t104.5 65q78 0 114 -74t-14.5 -207t-197.5 -268z" />
<glyph unicode="&#x201e;" horiz-adv-x="886" d="M80 -246q174 186 88 295q-45 53 -14.5 117.5t104.5 64.5q78 0 114 -73.5t-14.5 -205.5t-197.5 -267zM469 -246q174 186 88 295q-45 53 -14.5 117.5t104.5 64.5q78 0 114 -73.5t-14.5 -205.5t-197.5 -267z" />
<glyph unicode="&#x2022;" horiz-adv-x="860" d="M182 608.5q0 102.5 73 175t175 72.5t175 -72.5t73 -175t-73 -175.5t-175 -73t-175 73t-73 175.5z" />
<glyph unicode="&#x2026;" horiz-adv-x="1361" d="M106 104.5q0 51.5 37 88t88.5 36.5t87 -36.5t35.5 -88t-35.5 -87t-87 -35.5t-88.5 35.5t-37 87zM547 104.5q0 51.5 35.5 88t87 36.5t88.5 -36.5t37 -88t-37 -87t-88.5 -35.5t-87 35.5t-35.5 87zM987 104.5q0 51.5 36 88t87 36.5q53 0 89 -36.5t36 -88t-37 -87t-88 -35.5 t-87 35.5t-36 87z" />
<glyph unicode="&#x202f;" horiz-adv-x="351" />
<glyph unicode="&#x2039;" horiz-adv-x="641" d="M109 600l245 371l135 -74l-198 -295l201 -291l-140 -75z" />
<glyph unicode="&#x203a;" horiz-adv-x="641" d="M150 309l200 295l-198 291l139 76l241 -365l-247 -370z" />
<glyph unicode="&#x205f;" horiz-adv-x="438" />
<glyph unicode="&#x20ac;" d="M23 455v123h170q-2 20 -3 65q0 43 5 117h-172v123h190q41 217 175 343t368 126q145 0 278 -56l-45 -147q-117 53 -258 53q-262 0 -328 -319h390v-123h-410q0 -14 -1 -46t-1 -50q0 -59 2 -86h410v-123h-396q27 -164 112 -242t243 -78q127 0 258 58l43 -144 q-158 -70 -336 -69q-453 0 -514 475h-180z" />
<glyph unicode="&#x2122;" horiz-adv-x="1431" d="M90 1270v112h442v-112h-149v-463h-141v463h-152zM567 807l90 575h177l92 -315l20 -94l19 86l96 323h176l88 -575h-141l-45 301l-15 111l-24 -95l-92 -317h-142l-90 321l-22 91l-6 -76l-50 -336h-131z" />
<glyph unicode="&#xe000;" horiz-adv-x="1013" d="M0 0v1014h1014v-1014h-1014z" />
<glyph unicode="&#xfb01;" horiz-adv-x="1208" d="M14 874v144h209v45q0 444 475 444q143 0 287 -37l-35 -153q-131 39 -248 39q-295 0 -294 -273v-65h626v-1018h-184v874h-442v-874h-185v874h-209z" />
<glyph unicode="&#xfb02;" horiz-adv-x="1208" d="M14 874v144h209v117q0 178 117 275t352 97q152 0 342 -30v-1477h-184v1343q-84 14 -176 15q-137 0 -201.5 -57.5t-64.5 -182.5v-100h276v-144h-276v-874h-185v874h-209z" />
</font>
</defs>
</svg>
