<?xml version="1.0" standalone="no"?>
<!DOCTYPE svg PUBLIC "-//W3C//DTD SVG 1.1//EN" "http://www.w3.org/Graphics/SVG/1.1/DTD/svg11.dtd" >
<svg xmlns="http://www.w3.org/2000/svg">
<metadata></metadata>
<defs>
<font id="thesansb8extrabold" horiz-adv-x="1126" >
<font-face units-per-em="2048" ascent="1638" descent="-410" />
<missing-glyph horiz-adv-x="446" />
<glyph horiz-adv-x="2048" />
<glyph horiz-adv-x="2048" />
<glyph unicode="&#xd;" horiz-adv-x="681" />
<glyph unicode=" "  horiz-adv-x="446" />
<glyph unicode="&#x09;" horiz-adv-x="446" />
<glyph unicode="&#xa0;" horiz-adv-x="446" />
<glyph unicode="!" horiz-adv-x="661" d="M160 152q0 76 53 127t131 51t131 -51t53 -127q0 -74 -53 -125.5t-131 -51.5t-131 51.5t-53 125.5zM164 1456h366l-45 -1044h-272z" />
<glyph unicode="&#x22;" horiz-adv-x="880" d="M78 1442h309l-37 -553h-233zM494 1442h309l-37 -553h-234z" />
<glyph unicode="#" d="M49 336v215h164l23 235h-142v218h164l35 327h223l-35 -327h232l35 327h225l-35 -327h139v-218h-162l-24 -235h141v-215h-164l-34 -336h-224l35 336h-231l-35 -336h-223l34 336h-141zM436 551h232l22 235h-229z" />
<glyph unicode="$" d="M131 930q0 135 87 236.5t231 136.5v192h219v-176q117 -4 206 -25l-22 -260q-113 33 -225 33q-170 0 -170 -109q0 -45 54 -77.5t132 -60t157 -66.5t133 -119t54 -197q0 -139 -91 -246.5t-245 -146.5v-219h-221v205q-98 0 -244 22l23 277q123 -41 254 -41q193 0 192 121 q0 51 -54 84.5t-131 60.5t-153.5 63.5t-131 115.5t-54.5 196z" />
<glyph unicode="%" horiz-adv-x="1570" d="M72 1020q0 150 95 244t232 94q143 0 229.5 -81t86.5 -237q0 -154 -96.5 -250t-233.5 -96q-150 0 -231.5 87t-81.5 239zM168 92l1032 1284l195 -141l-1033 -1284zM301 1028q0 -141 94 -141q37 0 63.5 36.5t26.5 102.5q0 80 -22.5 109.5t-67.5 29.5q-41 0 -67.5 -35.5 t-26.5 -101.5zM856 299q0 150 95.5 244t234.5 94q143 0 228 -81t85 -237q0 -154 -96 -250t-234 -96q-150 0 -231.5 87t-81.5 239zM1085 307q0 -141 95 -141q39 0 65.5 36.5t26.5 102.5q0 78 -22.5 108.5t-69.5 30.5q-41 0 -68 -35.5t-27 -101.5z" />
<glyph unicode="&#x26;" horiz-adv-x="1634" d="M86 387q0 221 242 412q-164 197 -164 358q0 152 116.5 254t319.5 102q186 0 287.5 -83.5t101.5 -231.5q0 -205 -237 -393q150 -139 319 -266v-2q117 190 111 415h311q4 -330 -184 -585l258 -183l-207 -237q-188 131 -275 196q-229 -170 -524 -170q-238 0 -356.5 118 t-118.5 296zM410 424q0 -74 55 -128t147 -54q127 -1 242 73q-182 145 -340 295q-104 -96 -104 -186zM473 1174q0 -82 94 -191q115 99 115 195q0 45 -26.5 74.5t-75.5 29.5q-47 0 -77 -30.5t-30 -77.5z" />
<glyph unicode="'" horiz-adv-x="464" d="M78 1442h309l-37 -553h-233z" />
<glyph unicode="(" horiz-adv-x="630" d="M82 584q0 557 307 1036l232 -104q-229 -414 -230 -922q0 -512 236 -936l-240 -104q-305 479 -305 1030z" />
<glyph unicode=")" horiz-adv-x="630" d="M8 1513l240 107q301 -479 301 -1032q0 -559 -307 -1034l-232 102q231 416 232 922q0 510 -234 935z" />
<glyph unicode="*" horiz-adv-x="800" d="M53 1083l207 74l-207 76l109 186l168 -141l-41 217h219l-39 -217l168 141l108 -186l-206 -76l206 -74l-110 -188l-166 141l39 -215h-219l39 215l-168 -139z" />
<glyph unicode="+" d="M76 479v262h338v359h297v-359h340v-262h-340v-362h-297v362h-338z" />
<glyph unicode="," horiz-adv-x="567" d="M59 -266q104 115 122 190.5t-42 136.5q-39 55 -40 121t50.5 118t133.5 52q117 0 168 -110q70 -147 -35 -346q-74 -143 -230 -275z" />
<glyph unicode="-" horiz-adv-x="690" d="M86 430v250h516v-250h-516z" />
<glyph unicode="." horiz-adv-x="567" d="M90 168q0 80 57.5 137t135.5 57q80 0 137 -57t57 -137t-57.5 -136.5t-136.5 -56.5q-78 0 -135.5 56.5t-57.5 136.5z" />
<glyph unicode="/" horiz-adv-x="983" d="M-41 -330l719 1880h309l-717 -1880h-311z" />
<glyph unicode="0" d="M55 670q0 338 140.5 513t377.5 175q252 0 374 -162t122 -522q0 -344 -145.5 -522.5t-370.5 -178.5q-119 0 -206 33t-155.5 110t-102.5 215t-34 339zM391 678q0 -180 19.5 -275.5t54.5 -127t98 -31.5q86 0 128 92t42 332q0 176 -20.5 270t-55 124t-96.5 30 q-84 0 -127 -89.5t-43 -324.5z" />
<glyph unicode="1" d="M117 1194l413 137h238v-1050h276v-281h-921v281h319v725l-276 -109z" />
<glyph unicode="2" d="M94 0v256l139 135q242 233 317 334.5t75 175.5t-50.5 119t-142.5 45q-147 0 -272 -84l-56 281q178 94 400 94q233 0 352 -115t119 -283q0 -137 -72 -260t-266 -301l-102 -96v-4q154 6 350 6h135v-303h-926z" />
<glyph unicode="3" d="M119 6l26 266q119 -39 263 -39q131 0 195.5 47.5t64.5 122.5q0 156 -262 156q-115 0 -218 -14v239h70q387 0 387 177q0 137 -201 137q-158 0 -280 -64l-27 260q170 63 375 64q227 0 344 -91t117 -245q0 -221 -217 -293l-2 -4q113 -18 182.5 -99t69.5 -192 q0 -217 -169 -339t-446 -122q-145 0 -272 33z" />
<glyph unicode="4" d="M31 541l467 790h426v-774h161v-281h-161v-276h-308v276h-557zM342 553q70 4 281 4v461h-2z" />
<glyph unicode="5" d="M152 4v279q133 -39 280 -39q113 0 176.5 47t63.5 129q0 84 -72 128t-203 44q-106 0 -233 -17v756h794v-293h-495v-202h57q233 0 365.5 -105.5t132.5 -279.5q0 -217 -166 -346.5t-438 -129.5q-137 0 -262 29z" />
<glyph unicode="6" d="M63 569q0 377 189.5 580t521.5 203q104 0 176 -9v-270q-92 18 -186 19q-276 0 -365 -267q-10 -33 -18 -69h2q94 98 266 98q199 0 309.5 -111.5t110.5 -281.5q0 -227 -137 -357.5t-363 -130.5q-240 0 -373 147.5t-133 448.5zM391 430q0 -90 49 -146.5t142 -56.5 q80 0 126 52.5t46 136.5q0 88 -47.5 136t-135.5 48q-84 0 -132 -51t-48 -119z" />
<glyph unicode="7" d="M94 1024v307h934v-268q-240 -465 -418 -1063h-356q74 252 190.5 543t219.5 487q-197 -6 -396 -6h-174z" />
<glyph unicode="8" d="M66 336q0 186 217 326q-188 115 -189 303q0 178 136.5 285.5t349.5 107.5q207 0 328.5 -95.5t121.5 -244.5q0 -178 -192 -309q223 -125 223 -326q0 -195 -147.5 -302.5t-364.5 -107.5q-227 0 -355 97.5t-128 265.5zM387 360q0 -61 48 -99t136 -38q76 0 121 37t45 96 q0 61 -49 101.5t-149 85.5q-74 -45 -113 -86t-39 -97zM408 993q0 -53 42 -91t130 -79q137 80 137 168q0 55 -39 90t-119 35q-74 0 -112.5 -36t-38.5 -87z" />
<glyph unicode="9" d="M55 872q0 223 139.5 354.5t362.5 131.5q238 0 371 -150.5t133 -445.5q0 -379 -188.5 -580.5t-520.5 -201.5q-123 0 -202 14v272q98 -25 217 -24q276 0 354 256q4 14 11 36.5t9 32.5h-2q-102 -92 -264 -92q-197 0 -308.5 112.5t-111.5 284.5zM367 915q0 -90 46 -137 t134 -47q84 0 131 49t47 123q0 90 -48 145.5t-140 55.5q-78 0 -124 -54.5t-46 -134.5z" />
<glyph unicode=":" horiz-adv-x="626" d="M139 168q0 80 57.5 137t137.5 57q78 0 135 -57t57 -137t-57 -136.5t-135 -56.5q-80 0 -137.5 56.5t-57.5 136.5zM139 735q0 78 57.5 135.5t137.5 57.5q78 0 135 -57.5t57 -135.5q0 -80 -57 -137t-135 -57q-80 0 -137.5 57t-57.5 137z" />
<glyph unicode=";" horiz-adv-x="626" d="M109 -266q106 115 123.5 190.5t-42.5 136.5q-41 55 -42 121t51.5 118t132.5 52q117 0 170 -110q68 -145 -37 -346q-74 -143 -229 -275zM139 735q0 78 57.5 135.5t137.5 57.5q78 0 135 -57.5t57 -135.5q0 -80 -57 -137t-135 -57q-80 0 -137.5 57t-57.5 137z" />
<glyph unicode="&#x3c;" d="M119 612l653 619l207 -207l-459 -410l461 -407l-205 -213z" />
<glyph unicode="=" d="M106 274v250h914v-250h-914zM106 692v250h914v-250h-914z" />
<glyph unicode="&#x3e;" d="M145 1020l205 211l658 -619l-654 -618l-207 207l459 409z" />
<glyph unicode="?" horiz-adv-x="931" d="M115 1194l39 283q348 -6 523 -130.5t175 -302.5q0 -80 -28.5 -146.5t-70.5 -106t-88.5 -83.5t-80 -79t-48 -92.5t8.5 -124.5h-305q-49 129 -12.5 226t99 146.5t124 109.5t61.5 118q0 172 -397 182zM213 152q0 76 53 127t131 51t131.5 -51t53.5 -127q0 -74 -53.5 -125.5 t-131.5 -51.5t-131 51.5t-53 125.5z" />
<glyph unicode="@" horiz-adv-x="1976" d="M156 573q0 406 262 672t649 266q350 0 541.5 -183t191.5 -472q0 -285 -141 -437.5t-373 -152.5q-100 0 -154.5 49.5t-56.5 130.5h-8q-41 -74 -113.5 -127t-160.5 -53q-100 0 -156.5 77t-56.5 230q0 240 123.5 391.5t365.5 151.5q139 0 250 -47l-66 -387 q-16 -96 -0.5 -135t68.5 -39q90 0 145.5 81t55.5 253q0 180 -114 300t-355 120q-262 0 -438.5 -182.5t-176.5 -477.5q0 -510 549 -510q170 0 365 64l47 -240q-215 -78 -451 -78q-385 0 -588.5 195.5t-203.5 539.5zM813 618q0 -115 51 -114.5t102.5 80.5t82.5 239l14 78 q-27 10 -70 10q-80 0 -130 -94t-50 -199z" />
<glyph unicode="A" horiz-adv-x="1296" d="M-8 0l467 1382h362l486 -1382h-351l-86 256h-477l-84 -256h-317zM469 508h322l-107 315q-29 84 -53 193h-4q-31 -129 -52 -193z" />
<glyph unicode="B" horiz-adv-x="1200" d="M123 0v1380q211 10 495 11q225 0 350.5 -88.5t125.5 -260.5q0 -98 -49.5 -179t-139.5 -120v-6q104 -27 166 -113t62 -192q0 -184 -141.5 -310t-428.5 -126q-27 0 -176 2t-264 2zM442 262q41 -6 125 -6q106 0 165 46t59 126q0 78 -63.5 120t-178.5 42q-82 0 -107 -2v-326z M442 827q27 -2 95 -2q219 0 219 168q0 141 -191 142q-45 0 -123 -5v-303z" />
<glyph unicode="C" horiz-adv-x="1136" d="M68 641q0 344 182 548t518 204q160 0 283 -39l-41 -291q-117 43 -248 43q-164 0 -254 -110.5t-90 -301.5q0 -422 360 -422q133 0 236 52l45 -283q-158 -59 -344 -59q-182 0 -314.5 57t-202 156.5t-100 209t-30.5 236.5z" />
<glyph unicode="D" horiz-adv-x="1351" d="M123 2v1376q217 12 471 13q692 0 692 -672q0 -348 -204.5 -538.5t-549.5 -190.5q-156 0 -409 12zM442 272q53 -8 119 -8q172 0 277.5 108.5t105.5 321.5q0 209 -83 318.5t-288 109.5q-96 0 -131 -4v-846z" />
<glyph unicode="E" horiz-adv-x="997" d="M123 0v1382h778v-268h-459v-274h435v-260h-435v-306h459v-274h-778z" />
<glyph unicode="F" horiz-adv-x="948" d="M123 0v1382h762v-272h-443v-295h418v-262h-418v-553h-319z" />
<glyph unicode="G" horiz-adv-x="1372" d="M66 657q0 334 211.5 540t570.5 206q213 0 399 -57l-63 -291q-164 63 -350 63q-197 0 -310.5 -116.5t-113.5 -319.5q0 -195 101 -305.5t292 -110.5q76 0 131 19v452h319v-669q-221 -90 -485 -91q-334 0 -518 181.5t-184 498.5z" />
<glyph unicode="H" horiz-adv-x="1390" d="M123 0v1382h319v-530h506v530h320v-1382h-320v575h-506v-575h-319z" />
<glyph unicode="I" horiz-adv-x="565" d="M123 0v1382h319v-1382h-319z" />
<glyph unicode="J" horiz-adv-x="694" d="M0 -4v270q51 -18 117 -18q70 0 104.5 37t34.5 129v968h317v-979q0 -188 -91 -305.5t-300 -117.5q-100 0 -182 16z" />
<glyph unicode="K" horiz-adv-x="1239" d="M123 0v1382h319v-610l379 610h387l-456 -665l479 -717h-414l-375 649v-649h-319z" />
<glyph unicode="L" horiz-adv-x="880" d="M123 0v1382h319v-1099h418v-283h-737z" />
<glyph unicode="M" horiz-adv-x="1794" d="M41 0l221 1382h367l192 -606q41 -137 74 -301h4q33 164 80 303l195 604h360l221 -1382h-336l-88 569q-25 143 -41 322h-4q-33 -168 -80 -326l-170 -565h-307l-164 522q-61 188 -90 369h-2q-8 -94 -41 -350l-70 -541h-321z" />
<glyph unicode="N" horiz-adv-x="1419" d="M123 0v1382h409l304 -546q72 -131 168 -340q-14 166 -15 432v454h307v-1382h-407l-326 596q-80 150 -143 303q10 -170 10 -373v-526h-307z" />
<glyph unicode="O" horiz-adv-x="1437" d="M57 674q0 330 198 532.5t488 202.5q289 0 463 -174t174 -522q0 -334 -195.5 -537t-490.5 -203q-315 0 -476 184.5t-161 516.5zM395 700q0 -207 79 -320.5t239 -113.5q131 0 230 105.5t99 320.5q0 209 -82.5 317.5t-240.5 108.5q-135 0 -229.5 -106.5t-94.5 -311.5z" />
<glyph unicode="P" horiz-adv-x="1097" d="M123 0v1382q199 10 393 11q264 0 404.5 -116t140.5 -329q0 -211 -145.5 -351t-399.5 -140q-45 0 -74 2v-459h-319zM442 725q41 -4 56 -4q102 2 167.5 58.5t65.5 154.5q0 199 -221 199q-45 0 -68 -3v-405z" />
<glyph unicode="Q" horiz-adv-x="1437" d="M57 674q0 330 198 532.5t488 202.5q289 0 463 -174t174 -522q0 -334 -195.5 -537t-490.5 -203q-315 0 -476 184.5t-161 516.5zM395 700q0 -207 79 -320.5t239 -113.5q131 0 230 105.5t99 320.5q0 209 -82.5 317.5t-240.5 108.5q-135 0 -229.5 -106.5t-94.5 -311.5z M594 -115q74 8 144 8q49 0 96 -4q114 -10 187 -30.5t183 -29.5q37 -3 75 -3q76 0 155 12v-278q-126 -17 -213 -17q-64 0 -107 9q-102 22 -244 46q-87 15 -169 15q-54 0 -107 -6v278z" />
<glyph unicode="R" horiz-adv-x="1177" d="M123 0v1382q145 10 432 11q522 0 522 -410q0 -139 -83 -243.5t-214 -139.5q90 -131 107 -156l284 -444h-389l-321 541h-19v-541h-319zM442 772q33 -4 80 -4q102 0 161.5 50t59.5 138q0 174 -213 174q-51 0 -88 -4v-354z" />
<glyph unicode="S" horiz-adv-x="1028" d="M68 975q0 199 144 315.5t402 116.5q137 0 252 -27l-28 -278q-117 41 -238 41q-190 0 -190 -131q0 -57 58 -98.5t141 -72t165 -72.5t140.5 -126t58.5 -205q0 -201 -153.5 -332t-395.5 -131q-186 0 -330 37l31 303q150 -61 307 -61q82 0 135.5 36t53.5 107 q0 63 -57.5 104.5t-138.5 70t-162 66.5t-138 123t-57 214z" />
<glyph unicode="T" horiz-adv-x="1038" d="M29 1110v272h981v-272h-332v-1110h-318v1110h-331z" />
<glyph unicode="U" horiz-adv-x="1378" d="M123 487v895h319v-876q0 -131 54.5 -197.5t193.5 -66.5q135 0 192.5 64.5t57.5 217.5v858h315v-839q0 -287 -152.5 -428.5t-432.5 -141.5q-160 0 -270.5 40t-169 115t-83 161t-24.5 198z" />
<glyph unicode="V" horiz-adv-x="1300" d="M-4 1382h344l244 -755q45 -137 71 -258h4q27 119 78 276l242 737h326l-467 -1382h-373z" />
<glyph unicode="W" horiz-adv-x="1947" d="M37 1382h338l162 -673q33 -145 45 -289h2q27 182 53 280l180 682h330l180 -669q35 -129 55 -285h2q23 168 52 291l155 663h320l-346 -1382h-387l-164 651q-31 127 -51 316h-2q-16 -164 -52 -305l-166 -662h-364z" />
<glyph unicode="X" horiz-adv-x="1327" d="M12 0l432 705l-407 677h369l251 -448l248 448h363l-400 -680l447 -702h-402l-262 467l-262 -467h-377z" />
<glyph unicode="Y" horiz-adv-x="1183" d="M-4 1382h348l158 -352q55 -123 88 -221h4q27 80 106 250l150 323h336l-438 -899v-483h-320v481z" />
<glyph unicode="Z" horiz-adv-x="1097" d="M90 0v250l445 743q31 51 73 107q-74 -4 -217 -4h-287v286h895v-260l-469 -753q-14 -25 -53 -78q27 4 268 4h263v-295h-918z" />
<glyph unicode="[" horiz-adv-x="677" d="M127 -426v2025h481v-249h-188v-1524h188v-252h-481z" />
<glyph unicode="\" horiz-adv-x="1032" d="M8 1550h311l717 -1880h-311z" />
<glyph unicode="]" horiz-adv-x="677" d="M72 -174h186v1524h-186v249h481v-2025h-481v252z" />
<glyph unicode="^" d="M100 788l334 594h236l348 -589l-221 -111l-250 481l-240 -481z" />
<glyph unicode="_" d="M0 -248h1126v-252h-1126v252z" />
<glyph unicode="`" horiz-adv-x="772" d="M156 1348l135 208l385 -253l-109 -170z" />
<glyph unicode="a" horiz-adv-x="1077" d="M66 279q0 184 154.5 272t418.5 88v41q0 66 -42 95.5t-140 29.5q-139 0 -281 -68l-53 244q184 63 387 63q246 0 344 -88t98 -266v-448q1 -136 9 -242h-293q0 102 8 154h-2q-37 -80 -121 -128.5t-191 -48.5q-141 0 -218.5 85t-77.5 217zM360 311q0 -41 28 -68.5t75 -27.5 q76 0 126 58.5t50 136.5v32q-279 0 -279 -131z" />
<glyph unicode="b" horiz-adv-x="1144" d="M121 29v1466h311v-401q0 -111 -14 -203l2 -2q37 70 112.5 110.5t176.5 40.5q180 0 276 -126t96 -351q0 -260 -148.5 -423t-414.5 -163q-209 0 -397 52zM432 240q43 -12 109 -13q211 0 211 305q0 248 -140 248q-80 0 -130 -81t-50 -203v-256z" />
<glyph unicode="c" horiz-adv-x="856" d="M61 477q0 246 135.5 404.5t397.5 158.5q104 0 207 -32l-47 -271q-80 35 -162 35q-102 0 -153.5 -71.5t-51.5 -198.5q0 -252 205 -252q100 0 172 35l37 -262q-119 -45 -273 -46q-231 0 -349 127t-118 373z" />
<glyph unicode="d" horiz-adv-x="1142" d="M61 453q0 258 146.5 421.5t400.5 163.5q53 0 103 -6v463h311v-1495h-287q0 82 10 145h-4q-96 -170 -309 -170q-180 0 -275.5 127t-95.5 351zM391 485q0 -249 140 -249h1q78 0 128.5 82.5t50.5 209.5v250q-51 12 -107 13q-213 0 -213 -306z" />
<glyph unicode="e" horiz-adv-x="1062" d="M61 498q0 242 129 393t361 151q221 0 331.5 -131t110.5 -342q0 -53 -10 -139h-606q4 -211 252 -211q154 0 299 64l30 -236q-172 -70 -380 -70q-516 0 -517 521zM377 637h309v9q0 80 -36 123q-38 46 -107 46q-68 0 -113 -49t-53 -129z" />
<glyph unicode="f" horiz-adv-x="731" d="M18 778v240h156v88q0 207 99.5 307t318.5 100q92 0 164 -16l-21 -254q-55 18 -112 19q-72 0 -105 -37t-33 -117v-90h209v-240h-209v-778h-311v778h-156z" />
<glyph unicode="g" horiz-adv-x="1122" d="M61 -205q0 70 44.5 137.5t103.5 100.5q-98 47 -98 157q0 61 35.5 113.5t89.5 75.5q-154 82 -154 274q0 166 121 277.5t342 111.5q80 0 178 -24h346v-246h-117q29 -33 29 -90q0 -170 -112.5 -267.5t-327.5 -97.5q-29 0 -62 7q-37 -18 -37 -52q0 -31 28 -40t118 -13l137 -6 q350 -12 350 -303q0 -172 -158.5 -295t-412.5 -123q-213 0 -328 77t-115 226zM416 -237q49 -35 133 -35q104 0 161.5 39t57.5 102q0 100 -129 106l-162 5h-20.5t-18.5 2q-71 -58 -71 -125q0 -59 49 -94zM381 674q0 -145 154 -146q72 0 111.5 38t39.5 104q0 68 -39 107.5 t-115 39.5q-72 0 -111.5 -40t-39.5 -103z" />
<glyph unicode="h" horiz-adv-x="1163" d="M121 0v1495h311v-408q0 -125 -16 -208h2q99 161 318 161h3q160 0 230.5 -89t70.5 -234v-717h-311v647q0 131 -94 131q-82 0 -142.5 -87t-60.5 -199v-492h-311z" />
<glyph unicode="i" horiz-adv-x="555" d="M86 1321q0 76 56.5 130t133.5 54q80 0 136.5 -54t56.5 -130t-56.5 -130t-136.5 -54q-78 0 -134 54t-56 130zM121 0v1018h311v-1018h-311z" />
<glyph unicode="j" horiz-adv-x="561" d="M-133 -479l18 264q57 -23 117 -23q68 0 96.5 35t28.5 117v1104h311v-1069q0 -219 -98 -334t-326 -115q-76 0 -147 21zM90 1321q0 76 56.5 130t136.5 54q78 0 134 -54t56 -130t-56.5 -130t-133.5 -54q-80 0 -136.5 54t-56.5 130z" />
<glyph unicode="k" horiz-adv-x="1110" d="M121 0v1495h311v-887l258 410h383l-336 -467l361 -551h-389l-277 489v-489h-311z" />
<glyph unicode="l" horiz-adv-x="555" d="M121 0v1495h311v-1495h-311z" />
<glyph unicode="m" horiz-adv-x="1757" d="M121 0v1018h293q0 -80 -13 -162h2q49 86 134.5 135t191.5 49q221 0 279 -184q43 80 127 132t194 52q307 0 307 -344v-696h-313v637q0 141 -92 141q-74 0 -136.5 -85t-62.5 -204v-489h-307v639q0 139 -92 139q-78 0 -139.5 -85t-61.5 -204v-489h-311z" />
<glyph unicode="n" horiz-adv-x="1163" d="M121 0v1018h291q0 -100 -13 -160l2 -2q111 184 338 184q160 0 230.5 -89t70.5 -234v-717h-311v647q0 131 -94 131q-82 0 -142.5 -86t-60.5 -198v-494h-311z" />
<glyph unicode="o" horiz-adv-x="1142" d="M57 485q0 248 151.5 401.5t387 153.5t361.5 -130t126 -380q0 -246 -151.5 -399.5t-384.5 -153.5q-231 0 -360.5 123t-129.5 385zM381 520q0 -272 188 -272q86 0 138.5 69.5t52.5 194.5q0 262 -185 262q-82 0 -138 -64.5t-56 -189.5z" />
<glyph unicode="p" horiz-adv-x="1144" d="M121 -485v1503h287q0 -78 -9 -146h4q90 168 308 168q178 0 274 -126t96 -349q0 -270 -138 -425.5t-406 -155.5q-61 0 -105 8v-477h-311zM432 240q49 -12 109 -13q211 0 211 305q0 250 -140 250q-80 0 -130 -82t-50 -211v-249z" />
<glyph unicode="q" horiz-adv-x="1144" d="M63 451q0 260 147.5 424.5t420.5 164.5q188 0 393 -32v-1493h-313v415q0 113 14 207l-4 2q-39 -78 -111.5 -121t-167.5 -43q-184 0 -281.5 121t-97.5 355zM391 485q0 -249 138 -249h1q80 0 130.5 83t50.5 216v245q-51 10 -107 11q-213 0 -213 -306z" />
<glyph unicode="r" horiz-adv-x="729" d="M121 0v1018h291q0 -92 -15 -180h4q91 204 287 205q9 0 19 -1l-15 -309q-35 8 -66 8q-80 0 -128 -56q-66 -77 -66 -265v-420h-311z" />
<glyph unicode="s" horiz-adv-x="841" d="M70 702q0 150 113.5 245t336.5 95q76 0 178 -18l-10 -244q-74 27 -176 27q-117 0 -117 -78q0 -37 39 -61.5t95.5 -46t112.5 -51t95 -92t39 -152.5q0 -160 -126 -254.5t-335 -94.5q-123 0 -225 29l16 254q94 -41 213 -41q57 0 91 21.5t34 58.5q0 41 -38.5 66.5t-93 44 t-110 46t-94 90t-38.5 156.5z" />
<glyph unicode="t" horiz-adv-x="772" d="M16 778v240h154v301l313 84v-385h219v-240h-219v-401q0 -78 22.5 -108.5t82.5 -30.5q45 0 106 14l19 -244q-117 -31 -232 -31q-176 0 -243.5 71t-67.5 257v473h-154z" />
<glyph unicode="u" horiz-adv-x="1159" d="M119 301v717h313v-647q0 -131 94 -131q82 0 141.5 86t59.5 198v494h313v-1018h-290q0 100 12 160l-4 2q-106 -184 -336 -185q-160 0 -231.5 89.5t-71.5 234.5z" />
<glyph unicode="v" horiz-adv-x="1062" d="M-2 1018h342l125 -361q35 -96 74 -247h4q29 133 65 237l125 371h332l-375 -1018h-317z" />
<glyph unicode="w" horiz-adv-x="1634" d="M10 1018h340l78 -283q51 -182 84 -332h4q25 147 76 318l88 297h289l90 -281q57 -186 86 -334h4q39 205 72 318l84 297h319l-317 -1018h-332l-113 354q-23 74 -59 244h-2q-18 -92 -66 -256l-102 -342h-314z" />
<glyph unicode="x" horiz-adv-x="1093" d="M10 0l336 516l-315 502h370l160 -305l162 305h344l-297 -502l315 -516h-389l-157 311l-158 -311h-371z" />
<glyph unicode="y" horiz-adv-x="1056" d="M-27 -487l35 266q68 -20 135 -21q154 0 207 166l25 76l-369 1018h344l103 -297q39 -109 82 -297h2q37 154 96 328l92 266h334l-395 -1057q-100 -264 -222.5 -363.5t-310.5 -99.5q-82 0 -158 15z" />
<glyph unicode="z" horiz-adv-x="925" d="M90 0v223l356 518q-57 -4 -184 -4h-160v281h725v-223l-346 -510q33 2 199 2h154v-287h-744z" />
<glyph unicode="{" horiz-adv-x="770" d="M53 520v234q100 4 148.5 49t48.5 172v135q0 256 95 372.5t312 116.5h48v-249q-98 0 -131 -45t-33 -193v-135q0 -309 -189 -338v-4q188 -29 189 -348v-219q0 -150 32.5 -196t131.5 -46v-252h-48q-217 0 -312 114.5t-95 379.5v221q0 127 -48 177t-149 54z" />
<glyph unicode="|" horiz-adv-x="593" d="M168 -485v2048h248v-2048h-248z" />
<glyph unicode="}" horiz-adv-x="765" d="M68 -174q98 0 130.5 46t32.5 196v219q0 319 189 348v4q-188 25 -189 336v137q0 147 -32.5 192.5t-130.5 45.5v249h49q215 0 310 -116.5t95 -372.5v-133q0 -129 48 -174t151 -49v-234q-100 -4 -149.5 -54t-49.5 -177v-221q0 -264 -95 -379t-310 -115h-49v252z" />
<glyph unicode="~" d="M70 866v49q0 158 89 252.5t242 94.5q80 0 139.5 -33t86 -71t57.5 -70.5t64 -32.5q78 0 77 153h232v-47q0 -158 -89 -252t-243 -94q-80 0 -139.5 33t-85 70.5t-57 70.5t-62.5 33q-78 0 -78 -156h-233z" />
<glyph unicode="&#xa1;" horiz-adv-x="661" d="M131 -438l45 1044h270l52 -1044h-367zM131 866q0 74 53.5 125t131 51t131 -51t53.5 -125q0 -76 -53.5 -127t-131 -51t-131 51.5t-53.5 126.5z" />
<glyph unicode="&#xa2;" d="M143 666q0 188 101.5 317t290.5 174v174h233v-164q94 -6 195 -39l-64 -249q-84 39 -190 39q-109 0 -174.5 -63.5t-65.5 -176.5q0 -104 65.5 -164.5t174.5 -60.5q113 0 194 47l74 -248q-84 -41 -209 -57v-195h-233v195q-193 23 -292.5 148.5t-99.5 322.5z" />
<glyph unicode="&#xa3;" d="M90 543v241h150q-12 102 -13 142q0 432 484 432q123 0 258 -33l-64 -262q-111 37 -209 37q-154 0 -153 -152q0 -35 14 -164h297v-241h-268q6 -31 6 -70q0 -123 -94 -211q90 4 141 4h377v-266h-883v211q143 111 143 256q0 39 -6 76h-180z" />
<glyph unicode="&#xa4;" d="M66 254l133 168q-61 96 -62 244q0 145 72 245l-143 185l241 170l144 -193q61 18 133 19q61 0 110 -15l137 191l240 -174l-133 -172q51 -90 51 -232q0 -135 -69 -241l151 -195l-242 -174l-151 205q-63 -23 -135 -23q-47 0 -94 10l-140 -190zM406 676q0 -86 38.5 -137.5 t116.5 -51.5q68 0 114 48.5t46 148.5q0 182 -158 182q-66 0 -111.5 -49t-45.5 -141z" />
<glyph unicode="&#xa5;" d="M23 1331h344l127 -295q18 -45 69 -190h4q23 68 76 192l125 293h336l-309 -645h229v-194h-303v-105h303v-194h-303v-193h-315v193h-306v194h306v105h-306v194h230z" />
<glyph unicode="&#xa6;" horiz-adv-x="593" d="M168 289h248v-774h-248v774zM168 809v754h248v-754h-248z" />
<glyph unicode="&#xa7;" horiz-adv-x="1097" d="M104 649q0 190 156 299q-76 92 -76 213q0 154 115 253t356 99q104 0 176 -14l-14 -260q-68 20 -147 21q-150 0 -150 -93q0 -35 34 -75.5t83 -76.5t108.5 -87t108.5 -105.5t83 -133.5t34 -167q0 -90 -43 -170t-113 -131q76 -94 76 -215q0 -145 -125 -248.5t-387 -103.5 q-88 0 -176 20l20 260q70 -23 158 -22q86 0 129 28.5t43 73.5t-46 92.5t-112.5 95.5t-132 105.5t-112 146.5t-46.5 195zM385 688q0 -72 52 -132t204 -183q51 40 51 106q0 35 -10 64.5t-39 62.5t-51.5 54.5t-73.5 64.5t-82 72q-51 -41 -51 -109z" />
<glyph unicode="&#xa8;" horiz-adv-x="1118" d="M164 1321q0 66 48 114t114 48q68 0 114.5 -48t46.5 -114q0 -68 -47 -115t-114 -47q-66 0 -114 47t-48 115zM592 1321q0 66 48 114t114 48q68 0 114.5 -48t46.5 -114q0 -68 -47 -115t-114 -47q-66 0 -114 47t-48 115z" />
<glyph unicode="&#xa9;" horiz-adv-x="1566" d="M74 682q0 293 207.5 501t500.5 208q295 0 502 -207t207 -502q0 -293 -208 -501t-501 -208q-297 0 -502.5 207t-205.5 502zM305 682q0 -197 140.5 -338t336.5 -141q199 0 338.5 140t139.5 339q0 197 -139.5 337t-338.5 140q-197 0 -337 -139t-140 -338zM444 676 q0 162 92.5 267.5t268.5 105.5q98 0 174 -35l-37 -201q-39 33 -117 33q-127 0 -127 -166q0 -147 117 -148q74 0 131 29l43 -196q-90 -45 -213 -46q-150 0 -241 96.5t-91 260.5z" />
<glyph unicode="&#xaa;" horiz-adv-x="845" d="M70 831q0 141 115.5 209t295.5 68v27q0 78 -110 77q-113 0 -230 -55l-24 201q131 47 295 47q168 0 240.5 -67.5t72.5 -176.5q0 -72 -1 -188.5t-1 -159.5q0 -53 4 -172h-229q0 53 8 96h-2q-25 -51 -83.5 -83.5t-123.5 -32.5q-113 0 -170 58t-57 152zM92 311v242h670v-242 h-670zM299 866q0 -25 17.5 -41t48.5 -16q53 0 84.5 39t31.5 86v20q-182 0 -182 -88z" />
<glyph unicode="&#xab;" d="M70 598l217 420l245 -105l-165 -315l170 -311l-254 -107zM549 598l242 408l235 -107l-180 -301l184 -295l-246 -110z" />
<glyph unicode="&#xac;" d="M76 479v262h936v-557h-279v295h-657z" />
<glyph unicode="&#xad;" horiz-adv-x="690" d="M86 430v250h516v-250h-516z" />
<glyph unicode="&#xae;" horiz-adv-x="1157" d="M80 1090q0 205 145.5 346t352.5 141q209 0 353 -141.5t144 -346t-145.5 -347t-351.5 -142.5q-209 0 -353.5 141.5t-144.5 348.5zM262 1089.5q0 -131.5 92 -224.5t223.5 -93t223.5 92t92 223.5t-92 224.5t-223.5 93t-223.5 -92t-92 -223.5zM401 866v449h207 q164 0 164 -129q0 -92 -78 -127q14 -14 27 -49l57 -144h-164l-57 160h-18v-160h-138zM539 1120h20q57 0 57 47q0 43 -51 43h-26v-90z" />
<glyph unicode="&#xaf;" horiz-adv-x="808" d="M117 1204v226h575v-226h-575z" />
<glyph unicode="&#xb0;" horiz-adv-x="811" d="M72 1210q0 137 100 220t231 83q162 0 242 -84t80 -215q0 -143 -99.5 -225t-238.5 -82q-147 0 -231 81t-84 222zM299 1212q0 -51 26.5 -80.5t73.5 -29.5q45 0 72 32t27 83q0 41 -26 73.5t-71 32.5t-73.5 -30.5t-28.5 -80.5z" />
<glyph unicode="&#xb1;" d="M76 723v258h338v356h299v-356h338v-258h-338v-356h-299v356h-338zM86 0v260h954v-260h-954z" />
<glyph unicode="&#xb2;" horiz-adv-x="667" d="M82 721v170l96 78q117 92 117 141q0 53 -62 53q-55 0 -112 -30l-35 180q115 41 221 41q137 0 199.5 -55.5t62.5 -141.5q0 -94 -139 -211l-47 -39h199v-186h-500z" />
<glyph unicode="&#xb3;" horiz-adv-x="645" d="M78 717l20 149q53 -16 105 -16q96 0 96 57q0 78 -182 49v136h18q152 0 152 65q0 45 -68 45q-66 0 -110 -26l-27 145q90 33 209 33q133 0 193.5 -48.5t60.5 -119.5q0 -106 -92 -150q51 -6 83.5 -45t32.5 -86q0 -98 -83 -152.5t-244 -54.5q-78 0 -164 19z" />
<glyph unicode="&#xb4;" horiz-adv-x="811" d="M170 1303l387 253l135 -208l-411 -215z" />
<glyph unicode="&#xb6;" horiz-adv-x="1243" d="M96 915q0 215 141.5 341t366.5 126v-933q-254 0 -381 132t-127 334zM629 55h137v1327h387v-252h-127v-1327h-397v252z" />
<glyph unicode="&#xb7;" horiz-adv-x="598" d="M104 610q0 80 57.5 137.5t137.5 57.5t137.5 -57.5t57.5 -137.5t-57.5 -137t-137.5 -57t-137.5 57t-57.5 137z" />
<glyph unicode="&#xb8;" horiz-adv-x="819" d="M252 -479q74 86 79 156.5t-65 168.5l254 74q152 -215 -39 -399h-229z" />
<glyph unicode="&#xb9;" horiz-adv-x="661" d="M76 1264l186 67h234v-610h-250v420l-129 -51z" />
<glyph unicode="&#xba;" horiz-adv-x="880" d="M66 1008q0 182 111.5 290.5t277.5 108.5q356 0 356 -385q0 -180 -111.5 -289.5t-281.5 -109.5q-158 0 -255 93t-97 292zM94 311v242h688v-242h-688zM311 1016q0 -180 123 -180q131 0 131 182q0 176 -127 176q-53 0 -90 -44t-37 -134z" />
<glyph unicode="&#xbb;" d="M96 897l248 109l236 -404l-242 -409l-238 108l181 301zM592 911l254 107l213 -416l-219 -422l-246 105l166 317z" />
<glyph unicode="&#xbc;" horiz-adv-x="1507" d="M76 1264l186 67h234v-610h-250v420l-129 -51zM111 92l1030 1284l194 -141l-1032 -1284zM815 246l197 364h321v-352h84v-168h-84v-90h-217v90h-285zM997 256h121v217z" />
<glyph unicode="&#xbd;" horiz-adv-x="1511" d="M74 1264l186 67h234v-610h-250v420l-129 -51zM109 92l1032 1284l192 -141l-1030 -1284zM909 0v170l99 78q115 90 114.5 141t-61.5 51q-57 0 -111 -28l-35 180q113 41 222 41q135 0 197.5 -55.5t62.5 -141.5q0 -96 -137 -211l-50 -39h201v-186h-502z" />
<glyph unicode="&#xbe;" horiz-adv-x="1521" d="M90 717l23 147q43 -14 102 -14q96 0 96 57q0 78 -182 49v136h18q152 0 152 65q0 45 -66 45q-68 0 -112 -26l-25 145q90 33 207 33q133 0 193.5 -47t60.5 -121q0 -106 -92 -150q53 -6 85 -45t32 -86q0 -98 -83 -152.5t-245 -54.5q-94 0 -164 19zM125 92l1032 1284 l193 -141l-1031 -1284zM829 246l197 364h322v-352h84v-168h-84v-90h-218v90h-284zM1014 256h119v217z" />
<glyph unicode="&#xbf;" horiz-adv-x="931" d="M78 -27q0 94 41 170t93 118t103.5 95.5t73 104.5t-1.5 145h305q49 -129 12.5 -226t-99 -146.5t-124 -110t-61.5 -117.5q0 -172 395 -182l-37 -283q-348 6 -524 130t-176 302zM350 866q0 74 53.5 125t131 51t131 -51t53.5 -125q0 -76 -53.5 -127t-131 -51t-131 51.5 t-53.5 126.5z" />
<glyph unicode="&#xc0;" horiz-adv-x="1296" d="M-8 0l467 1382h362l486 -1382h-351l-86 256h-477l-84 -256h-317zM254 1559l65 217l459 -154l-49 -168zM469 508h322l-107 315q-29 84 -53 193h-4q-31 -129 -52 -193z" />
<glyph unicode="&#xc1;" horiz-adv-x="1296" d="M-8 0l467 1382h362l486 -1382h-351l-86 256h-477l-84 -256h-317zM444 1622l459 154l66 -217l-477 -105zM469 508h322l-107 315q-29 84 -53 193h-4q-31 -129 -52 -193z" />
<glyph unicode="&#xc2;" horiz-adv-x="1296" d="M-8 0l467 1382h362l486 -1382h-351l-86 256h-477l-84 -256h-317zM287 1599l348 181l350 -178l-70 -148l-280 117l-283 -117zM469 508h322l-107 315q-29 84 -53 193h-4q-31 -129 -52 -193z" />
<glyph unicode="&#xc3;" horiz-adv-x="1296" d="M-8 0l467 1382h362l486 -1382h-351l-86 256h-477l-84 -256h-317zM225 1589q100 180 275 180q78 0 151.5 -45t104.5 -45q63 0 110 84l154 -102q-104 -180 -275 -180q-80 0 -153.5 45t-102.5 45q-66 0 -112 -84zM469 508h322l-107 315q-29 84 -53 193h-4q-31 -129 -52 -193 z" />
<glyph unicode="&#xc4;" horiz-adv-x="1296" d="M-8 0l467 1382h362l486 -1382h-351l-86 256h-477l-84 -256h-317zM266 1618q0 57 41 99t100.5 42t100.5 -42t41 -99t-41 -99t-100.5 -42t-100.5 42t-41 99zM469 508h322l-107 315q-29 84 -53 193h-4q-31 -129 -52 -193zM711 1618q0 57 42 99t99 42t99 -42t42 -99t-42 -99 t-99 -42t-99 42t-42 99z" />
<glyph unicode="&#xc5;" horiz-adv-x="1296" d="M-8 0l440 1300q-70 70 -70 168q0 115 82 191t197 76q119 0 200 -76t81 -191q0 -98 -72 -170l457 -1298h-351l-86 256h-477l-84 -256h-317zM471 508h320l-97 278q-47 131 -63 226h-4q-25 -123 -66 -242zM539 1468q0 -41 30.5 -71.5t71.5 -30.5q43 0 73.5 30.5t30.5 71.5 q0 43 -30.5 74t-73.5 31q-41 0 -71.5 -31t-30.5 -74z" />
<glyph unicode="&#xc6;" horiz-adv-x="1613" d="M-72 0l652 1382h925v-268h-452v-274h436v-260h-436v-306h465v-274h-770v287h-369l-127 -287h-324zM483 535h265v579h-5q-72 -186 -122 -293z" />
<glyph unicode="&#xc7;" horiz-adv-x="1136" d="M68 641q0 344 182 548t518 204q160 0 283 -39l-41 -291q-117 43 -248 43q-164 0 -254 -110.5t-90 -301.5q0 -422 360 -422q133 0 236 52l45 -283q-158 -59 -344 -59q-182 0 -314.5 57t-202 156.5t-100 209t-30.5 236.5zM479 -479q74 86 79 156.5t-65 168.5l254 74 q152 -215 -39 -399h-229z" />
<glyph unicode="&#xc8;" horiz-adv-x="997" d="M123 0v1382h778v-268h-459v-274h435v-260h-435v-306h459v-274h-778zM162 1559l65 217l459 -154l-49 -168z" />
<glyph unicode="&#xc9;" horiz-adv-x="997" d="M123 0v1382h778v-268h-459v-274h435v-260h-435v-306h459v-274h-778zM356 1622l459 154l66 -217l-478 -105z" />
<glyph unicode="&#xca;" horiz-adv-x="997" d="M123 0v1382h778v-268h-459v-274h435v-260h-435v-306h459v-274h-778zM158 1599l348 181l350 -178l-70 -148l-280 117l-283 -117z" />
<glyph unicode="&#xcb;" horiz-adv-x="997" d="M123 0v1382h778v-268h-459v-274h435v-260h-435v-306h459v-274h-778zM141 1618q0 57 42 99t99.5 42t99.5 -42t42 -99t-42 -99t-99.5 -42t-99.5 42t-42 99zM586 1618q0 57 41 99t100 42t100 -42t41 -99t-41 -99t-100 -42t-100 42t-41 99z" />
<glyph unicode="&#xcc;" horiz-adv-x="565" d="M-35 1559l66 217l458 -154l-49 -168zM123 0v1382h319v-1382h-319z" />
<glyph unicode="&#xcd;" horiz-adv-x="565" d="M68 1622l458 154l66 -217l-477 -105zM123 0v1382h319v-1382h-319z" />
<glyph unicode="&#xce;" horiz-adv-x="565" d="M-68 1599l349 181l350 -178l-70 -148l-280 117l-283 -117zM123 0v1382h319v-1382h-319z" />
<glyph unicode="&#xcf;" horiz-adv-x="565" d="M-86 1618q0 57 41 99t100.5 42t100.5 -42t41 -99t-41 -99t-100.5 -42t-100.5 42t-41 99zM123 0v1382h319v-1382h-319zM358 1618q0 57 42 99t99.5 42t99.5 -42t42 -99t-42 -99t-99.5 -42t-99.5 42t-42 99z" />
<glyph unicode="&#xd0;" horiz-adv-x="1363" d="M6 578v239h135v561q213 12 467 13q690 0 690 -672q0 -348 -203.5 -538.5t-549.5 -190.5q-150 0 -404 12v576h-135zM455 272q33 -8 120 -8q172 0 277.5 108.5t105.5 321.5q0 209 -82.5 318.5t-287.5 109.5q-96 0 -133 -4v-301h219v-239h-219v-306z" />
<glyph unicode="&#xd1;" horiz-adv-x="1419" d="M123 0v1382h409l304 -546q72 -131 168 -340q-14 166 -15 432v454h307v-1382h-407l-326 596q-80 150 -143 303q10 -170 10 -373v-526h-307zM293 1589q100 180 274 180q80 0 154 -45t102 -45q63 0 111 84l153 -102q-104 -180 -274 -180q-80 0 -153.5 45t-102.5 45 q-66 0 -113 -84z" />
<glyph unicode="&#xd2;" horiz-adv-x="1437" d="M57 674q0 330 198 532.5t488 202.5q289 0 463 -174t174 -522q0 -334 -195.5 -537t-490.5 -203q-315 0 -476 184.5t-161 516.5zM395 700q0 -207 79 -320.5t239 -113.5q131 0 230 105.5t99 320.5q0 209 -82.5 317.5t-240.5 108.5q-135 0 -229.5 -106.5t-94.5 -311.5z M397 1559l66 217l459 -154l-50 -168z" />
<glyph unicode="&#xd3;" horiz-adv-x="1437" d="M57 674q0 330 198 532.5t488 202.5q289 0 463 -174t174 -522q0 -334 -195.5 -537t-490.5 -203q-315 0 -476 184.5t-161 516.5zM395 700q0 -207 79 -320.5t239 -113.5q131 0 230 105.5t99 320.5q0 209 -82.5 317.5t-240.5 108.5q-135 0 -229.5 -106.5t-94.5 -311.5z M547 1622l459 154l65 -217l-477 -105z" />
<glyph unicode="&#xd4;" horiz-adv-x="1437" d="M57 674q0 330 198 532.5t488 202.5q289 0 463 -174t174 -522q0 -334 -195.5 -537t-490.5 -203q-315 0 -476 184.5t-161 516.5zM395 700q0 -207 79 -320.5t239 -113.5q131 0 230 105.5t99 320.5q0 209 -82.5 317.5t-240.5 108.5q-135 0 -229.5 -106.5t-94.5 -311.5z M399 1599l349 181l350 -178l-70 -148l-280 117l-283 -117z" />
<glyph unicode="&#xd5;" horiz-adv-x="1437" d="M57 674q0 330 198 532.5t488 202.5q289 0 463 -174t174 -522q0 -334 -195.5 -537t-490.5 -203q-315 0 -476 184.5t-161 516.5zM311 1589q100 180 275 180q78 0 151.5 -45t104.5 -45q63 0 110 84l154 -102q-104 -180 -275 -180q-80 0 -153.5 45t-102.5 45q-66 0 -112 -84z M395 700q0 -207 79 -320.5t239 -113.5q131 0 230 105.5t99 320.5q0 209 -82.5 317.5t-240.5 108.5q-135 0 -229.5 -106.5t-94.5 -311.5z" />
<glyph unicode="&#xd6;" horiz-adv-x="1437" d="M57 674q0 330 198 532.5t488 202.5q289 0 463 -174t174 -522q0 -334 -195.5 -537t-490.5 -203q-315 0 -476 184.5t-161 516.5zM371 1618q0 57 42 99t99 42t99 -42t42 -99t-42 -99t-99 -42t-99 42t-42 99zM395 700q0 -207 79 -320.5t239 -113.5q131 0 230 105.5t99 320.5 q0 209 -82.5 317.5t-240.5 108.5q-135 0 -229.5 -106.5t-94.5 -311.5zM815 1618q0 57 41 99t100.5 42t100.5 -42t41 -99t-41 -99t-100.5 -42t-100.5 42t-41 99z" />
<glyph unicode="&#xd7;" d="M84 301l297 297l-297 297l192 192l297 -296l297 296l172 -172l-299 -294l299 -299l-192 -193l-299 299l-295 -299z" />
<glyph unicode="&#xd8;" horiz-adv-x="1437" d="M57 674q0 330 197 532.5t489 202.5q39 0 82 -6l64 188l231 -69l-61 -179q321 -157 321 -632q0 -334 -194.5 -536t-493.5 -202q-57 0 -100 9l-68 -199l-229 72l65 190q-303 160 -303 629zM381 700q0 -229 90 -325l262 749q-59 0 -100 -12q-113 -27 -182.5 -133.5 t-69.5 -278.5zM684 260q33 -6 76 -2q125 16 211 124.5t86 309.5q0 240 -105 338z" />
<glyph unicode="&#xd9;" horiz-adv-x="1378" d="M123 487v895h319v-876q0 -131 54.5 -197.5t193.5 -66.5q135 0 192.5 64.5t57.5 217.5v858h315v-839q0 -287 -152.5 -428.5t-432.5 -141.5q-160 0 -270.5 40t-169 115t-83 161t-24.5 198zM326 1559l65 217l459 -154l-49 -168z" />
<glyph unicode="&#xda;" horiz-adv-x="1378" d="M123 487v895h319v-876q0 -131 54.5 -197.5t193.5 -66.5q135 0 192.5 64.5t57.5 217.5v858h315v-839q0 -287 -152.5 -428.5t-432.5 -141.5q-160 0 -270.5 40t-169 115t-83 161t-24.5 198zM532 1622l459 154l66 -217l-477 -105z" />
<glyph unicode="&#xdb;" horiz-adv-x="1378" d="M123 487v895h319v-876q0 -131 54.5 -197.5t193.5 -66.5q135 0 192.5 64.5t57.5 217.5v858h315v-839q0 -287 -152.5 -428.5t-432.5 -141.5q-160 0 -270.5 40t-169 115t-83 161t-24.5 198zM344 1599l348 181l350 -178l-69 -148l-281 117l-282 -117z" />
<glyph unicode="&#xdc;" horiz-adv-x="1378" d="M123 487v895h319v-876q0 -131 54.5 -197.5t193.5 -66.5q135 0 192.5 64.5t57.5 217.5v858h315v-839q0 -287 -152.5 -428.5t-432.5 -141.5q-160 0 -270.5 40t-169 115t-83 161t-24.5 198zM313 1618q0 57 42 99t99.5 42t99.5 -42t42 -99t-42 -99t-99.5 -42t-99.5 42t-42 99 zM758 1618q0 57 41 99t100 42t100 -42t41 -99t-41 -99t-100 -42t-100 42t-41 99z" />
<glyph unicode="&#xdd;" horiz-adv-x="1183" d="M-4 1382h348l158 -352q55 -123 88 -221h4q27 80 106 250l150 323h336l-438 -899v-483h-320v481zM416 1622l458 154l66 -217l-477 -105z" />
<glyph unicode="&#xde;" horiz-adv-x="1132" d="M123 0v1382h319v-182q74 4 136 4q250 0 389 -117t139 -342q0 -219 -156.5 -362t-419.5 -143q-61 0 -88 2v-242h-319zM442 506q41 -8 103 -8q102 0 166.5 58t64.5 171q0 98 -58.5 157.5t-182.5 59.5q-27 0 -93 -4v-434z" />
<glyph unicode="&#xdf;" horiz-adv-x="1263" d="M121 0v1004q0 260 143.5 383.5t368.5 123.5q201 0 323.5 -85t122.5 -236q0 -86 -33.5 -148.5t-72.5 -91t-73 -69.5t-34 -88q0 -41 36 -75t87 -64.5t101.5 -67.5t86 -102.5t35.5 -151.5q0 -162 -121.5 -260.5t-312.5 -98.5q-139 0 -227 35l14 252q90 -47 189 -47 q133 0 133 90q0 41 -35 74t-85 61.5t-99.5 63.5t-84 99.5t-34.5 150.5q0 80 31.5 142t69.5 96t70 81t32 100q0 98 -129 99q-90 0 -140.5 -63.5t-50.5 -188.5v-1018h-311z" />
<glyph unicode="&#xe0;" horiz-adv-x="1077" d="M66 279q0 184 154.5 272t418.5 88v41q0 66 -42 95.5t-140 29.5q-139 0 -281 -68l-53 244q184 63 387 63q246 0 344 -88t98 -266v-448q1 -136 9 -242h-293q0 102 8 154h-2q-37 -80 -121 -128.5t-191 -48.5q-141 0 -218.5 85t-77.5 217zM234 1348l135 208l385 -253 l-109 -170zM360 311q0 -41 28 -68.5t75 -27.5q76 0 126 58.5t50 136.5v32q-279 0 -279 -131z" />
<glyph unicode="&#xe1;" horiz-adv-x="1077" d="M66 279q0 184 154.5 272t418.5 88v41q0 66 -42 95.5t-140 29.5q-139 0 -281 -68l-53 244q184 63 387 63q246 0 344 -88t98 -266v-448q1 -136 9 -242h-293q0 102 8 154h-2q-37 -80 -121 -128.5t-191 -48.5q-141 0 -218.5 85t-77.5 217zM336 1303l387 253l135 -208 l-411 -215zM360 311q0 -41 28 -68.5t75 -27.5q76 0 126 58.5t50 136.5v32q-279 0 -279 -131z" />
<glyph unicode="&#xe2;" horiz-adv-x="1077" d="M66 279q0 184 154.5 272t418.5 88v41q0 66 -42 95.5t-140 29.5q-139 0 -281 -68l-53 244q184 63 387 63q246 0 344 -88t98 -266v-448q1 -136 9 -242h-293q0 102 8 154h-2q-37 -80 -121 -128.5t-191 -48.5q-141 0 -218.5 85t-77.5 217zM209 1274l334 282l334 -282 l-117 -141l-217 161l-217 -161zM360 311q0 -41 28 -68.5t75 -27.5q76 0 126 58.5t50 136.5v32q-279 0 -279 -131z" />
<glyph unicode="&#xe3;" horiz-adv-x="1077" d="M66 279q0 184 154.5 272t418.5 88v41q0 66 -42 95.5t-140 29.5q-139 0 -281 -68l-53 244q184 63 387 63q246 0 344 -88t98 -266v-448q1 -136 9 -242h-293q0 102 8 154h-2q-37 -80 -121 -128.5t-191 -48.5q-141 0 -218.5 85t-77.5 217zM146 1286q98 199 264 199 q76 0 147.5 -49.5t100.5 -49.5q59 0 106 91l146 -111q-94 -199 -264 -199q-76 0 -147 49.5t-99 49.5q-59 0 -109 -90zM360 311q0 -41 28 -68.5t75 -27.5q76 0 126 58.5t50 136.5v32q-279 0 -279 -131z" />
<glyph unicode="&#xe4;" horiz-adv-x="1077" d="M66 279q0 184 154.5 272t418.5 88v41q0 66 -42 95.5t-140 29.5q-139 0 -281 -68l-53 244q184 63 387 63q246 0 344 -88t98 -266v-448q1 -136 9 -242h-293q0 102 8 154h-2q-37 -80 -121 -128.5t-191 -48.5q-141 0 -218.5 85t-77.5 217zM164 1321q0 66 48 114t114 48 q68 0 114.5 -48t46.5 -114q0 -68 -47 -115t-114 -47q-66 0 -114 47t-48 115zM360 311q0 -41 28 -68.5t75 -27.5q76 0 126 58.5t50 136.5v32q-279 0 -279 -131zM592 1321q0 66 48 114t114 48q68 0 114.5 -48t46.5 -114q0 -68 -47 -115t-114 -47q-66 0 -114 47t-48 115z" />
<glyph unicode="&#xe5;" horiz-adv-x="1077" d="M66 279q0 184 154.5 272t418.5 88v41q0 66 -42 95.5t-140 29.5q-139 0 -281 -68l-53 244q184 63 387 63q246 0 344 -88t98 -266v-448q1 -136 9 -242h-293q0 102 8 154h-2q-37 -80 -121 -128.5t-191 -48.5q-141 0 -218.5 85t-77.5 217zM256 1371.5q0 114.5 81 190.5 t197.5 76t197.5 -75.5t81 -190.5q0 -113 -81 -188.5t-197.5 -75.5t-197.5 74.5t-81 189zM360 311q0 -41 28 -68.5t75 -27.5q76 0 126 58.5t50 136.5v32q-279 0 -279 -131zM432 1372q0 -41 29.5 -72t73 -31t73 31t29.5 72q0 43 -29.5 73.5t-73 30.5t-73 -30.5t-29.5 -73.5z " />
<glyph unicode="&#xe6;" horiz-adv-x="1630" d="M66 279q0 184 154.5 272t418.5 88v41q0 66 -42 95.5t-140 29.5q-139 0 -281 -68l-53 244q184 63 387 63q225 0 324 -108h2q102 106 284 106q219 0 330 -131t111 -342q0 -76 -11 -139h-604q0 -211 252 -211q152 0 297 64l31 -236q-172 -70 -381 -70q-154 0 -260.5 51.5 t-149.5 141.5h-2q-111 -193 -366 -193q-143 0 -222 85t-79 217zM360 311q0 -41 28 -68.5t75 -27.5q76 0 126 58.5t50 136.5v32q-279 0 -279 -131zM946 637h309q2 86 -35.5 132t-107.5 46q-68 0 -113 -49t-53 -129z" />
<glyph unicode="&#xe7;" horiz-adv-x="856" d="M61 477q0 246 135.5 404.5t397.5 158.5q104 0 207 -32l-47 -271q-80 35 -162 35q-102 0 -153.5 -71.5t-51.5 -198.5q0 -252 205 -252q100 0 172 35l37 -262q-119 -45 -273 -46q-231 0 -349 127t-118 373zM303 -479q74 86 79 156.5t-65 168.5l254 74q152 -215 -39 -399 h-229z" />
<glyph unicode="&#xe8;" horiz-adv-x="1062" d="M61 498q0 242 129 393t361 151q221 0 331.5 -131t110.5 -342q0 -53 -10 -139h-606q4 -211 252 -211q154 0 299 64l30 -236q-172 -70 -380 -70q-516 0 -517 521zM252 1348l135 208l385 -253l-109 -170zM377 637h309q2 86 -36 132t-107 46q-68 0 -113 -49t-53 -129z" />
<glyph unicode="&#xe9;" horiz-adv-x="1062" d="M61 498q0 242 129 393t361 151q221 0 331.5 -131t110.5 -342q0 -53 -10 -139h-606q4 -211 252 -211q154 0 299 64l30 -236q-172 -70 -380 -70q-516 0 -517 521zM352 1303l387 253l135 -208l-411 -215zM377 637h309q2 86 -36 132t-107 46q-68 0 -113 -49t-53 -129z" />
<glyph unicode="&#xea;" horiz-adv-x="1062" d="M61 498q0 242 129 393t361 151q221 0 331.5 -131t110.5 -342q0 -53 -10 -139h-606q4 -211 252 -211q154 0 299 64l30 -236q-172 -70 -380 -70q-516 0 -517 521zM209 1274l334 282l334 -282l-117 -141l-217 161l-217 -161zM377 637h309q2 86 -36 132t-107 46 q-68 0 -113 -49t-53 -129z" />
<glyph unicode="&#xeb;" horiz-adv-x="1062" d="M61 498q0 242 129 393t361 151q221 0 331.5 -131t110.5 -342q0 -53 -10 -139h-606q4 -211 252 -211q154 0 299 64l30 -236q-172 -70 -380 -70q-516 0 -517 521zM176 1321q0 66 48 114t114 48q68 0 114.5 -48t46.5 -114q0 -68 -47 -115t-114 -47q-66 0 -114 47t-48 115z M377 637h309q2 86 -36 132t-107 46q-68 0 -113 -49t-53 -129zM604 1321q0 66 48 114t114 48q68 0 114.5 -48t46.5 -114q0 -68 -47 -115t-114 -47q-66 0 -114 47t-48 115z" />
<glyph unicode="&#xec;" horiz-adv-x="555" d="M19 1348l135 208l385 -253l-109 -170zM121 0v1018h311v-1018h-311z" />
<glyph unicode="&#xed;" horiz-adv-x="555" d="M-2 1303l387 253l135 -208l-411 -215zM121 0v1018h311v-1018h-311z" />
<glyph unicode="&#xee;" horiz-adv-x="555" d="M-56 1274l334 282l334 -282l-117 -141l-217 161l-217 -161zM121 0v1018h311v-1018h-311z" />
<glyph unicode="&#xef;" horiz-adv-x="555" d="M-96 1321q0 66 48 114t114 48q68 0 114.5 -48t46.5 -114q0 -68 -47 -115t-114 -47q-66 0 -114 47t-48 115zM121 0v1018h311v-1018h-311zM332 1321q0 66 48 114t114 48q68 0 114.5 -48t46.5 -114q0 -68 -47 -115t-114 -47q-66 0 -114 47t-48 115z" />
<glyph unicode="&#xf0;" horiz-adv-x="1146" d="M59 485q0 248 143.5 398.5t356.5 150.5q90 0 127 -43q-8 16 -24.5 41t-18.5 29q-33 55 -94 119l-176 -78l-123 141l156 68q-61 51 -148 106l303 127q82 -63 131 -112l168 71l123 -139l-164 -70q260 -319 260 -716q0 -291 -147.5 -446t-374.5 -155t-362.5 128t-135.5 380z M383 512q0 -129 51 -196.5t141 -67.5q181 -1 181 284q0 115 -47 178.5t-140 63.5q-80 0 -133 -66.5t-53 -195.5z" />
<glyph unicode="&#xf1;" horiz-adv-x="1163" d="M121 0v1018h291q0 -100 -13 -160l2 -2q111 184 338 184q160 0 230.5 -89t70.5 -234v-717h-311v647q0 131 -94 131q-82 0 -142.5 -86t-60.5 -198v-494h-311zM203 1286q98 199 264 199q76 0 147.5 -49.5t100.5 -49.5q59 0 106 91l146 -111q-94 -199 -264 -199 q-76 0 -147 49.5t-99 49.5q-59 0 -109 -90z" />
<glyph unicode="&#xf2;" horiz-adv-x="1142" d="M57 485q0 248 151.5 401.5t387 153.5t361.5 -130t126 -380q0 -246 -151.5 -399.5t-384.5 -153.5q-231 0 -360.5 123t-129.5 385zM279 1348l135 208l385 -253l-109 -170zM381 520q0 -272 188 -272q86 0 138.5 69.5t52.5 194.5q0 262 -185 262q-82 0 -138 -64.5t-56 -189.5 z" />
<glyph unicode="&#xf3;" horiz-adv-x="1142" d="M57 485q0 248 151.5 401.5t387 153.5t361.5 -130t126 -380q0 -246 -151.5 -399.5t-384.5 -153.5q-231 0 -360.5 123t-129.5 385zM379 1303l387 253l135 -208l-411 -215zM381 520q0 -272 188 -272q86 0 138.5 69.5t52.5 194.5q0 262 -185 262q-82 0 -138 -64.5t-56 -189.5 z" />
<glyph unicode="&#xf4;" horiz-adv-x="1142" d="M57 485q0 248 151.5 401.5t387 153.5t361.5 -130t126 -380q0 -246 -151.5 -399.5t-384.5 -153.5q-231 0 -360.5 123t-129.5 385zM248 1274l334 282l334 -282l-117 -141l-217 161l-217 -161zM381 520q0 -272 188 -272q86 0 138.5 69.5t52.5 194.5q0 262 -185 262 q-82 0 -138 -64.5t-56 -189.5z" />
<glyph unicode="&#xf5;" horiz-adv-x="1142" d="M57 485q0 248 151.5 401.5t387 153.5t361.5 -130t126 -380q0 -246 -151.5 -399.5t-384.5 -153.5q-231 0 -360.5 123t-129.5 385zM197 1286q98 199 264 199q76 0 147.5 -49.5t100.5 -49.5q59 0 106 91l146 -111q-94 -199 -264 -199q-76 0 -147 49.5t-99 49.5 q-59 0 -109 -90zM381 520q0 -272 188 -272q86 0 138.5 69.5t52.5 194.5q0 262 -185 262q-82 0 -138 -64.5t-56 -189.5z" />
<glyph unicode="&#xf6;" horiz-adv-x="1142" d="M57 485q0 248 151.5 401.5t387 153.5t361.5 -130t126 -380q0 -246 -151.5 -399.5t-384.5 -153.5q-231 0 -360.5 123t-129.5 385zM209 1321q0 66 48 114t114 48q68 0 114.5 -48t46.5 -114q0 -68 -47 -115t-114 -47q-66 0 -114 47t-48 115zM381 520q0 -272 188 -272 q86 0 138.5 69.5t52.5 194.5q0 262 -185 262q-82 0 -138 -64.5t-56 -189.5zM637 1321q0 66 48 114t114 48q68 0 114.5 -48t46.5 -114q0 -68 -47 -115t-114 -47q-66 0 -114 47t-48 115z" />
<glyph unicode="&#xf7;" d="M76 479v262h975v-262h-975zM379 198.5q0 75.5 54 130t130 54.5t129 -54.5t53 -130t-53 -130t-129 -54.5t-130 54.5t-54 130zM379 1020q0 76 54 130t130 54t129 -54t53 -130t-53 -130t-129 -54t-130 54t-54 130z" />
<glyph unicode="&#xf8;" horiz-adv-x="1142" d="M57 485q0 252 151.5 403.5t387.5 151.5q47 0 74 -4l73 191l175 -51l-72 -185q237 -125 237 -461q0 -246 -152.5 -399.5t-383.5 -153.5q-39 0 -92 9l-82 -207l-172 53l78 201q-221 117 -222 452zM352 520q0 -135 43 -194l178 462q-23 2 -51 -4q-170 -39 -170 -264z M549 236q37 -4 59 -3q80 12 131.5 81t51.5 196q0 125 -56 205z" />
<glyph unicode="&#xf9;" horiz-adv-x="1159" d="M119 301v717h313v-647q0 -131 94 -131q82 0 141.5 86t59.5 198v494h313v-1018h-290q0 100 12 160l-4 2q-106 -184 -336 -185q-160 0 -231.5 89.5t-71.5 234.5zM246 1348l135 208l385 -253l-109 -170z" />
<glyph unicode="&#xfa;" horiz-adv-x="1159" d="M119 301v717h313v-647q0 -131 94 -131q82 0 141.5 86t59.5 198v494h313v-1018h-290q0 100 12 160l-4 2q-106 -184 -336 -185q-160 0 -231.5 89.5t-71.5 234.5zM416 1303l387 253l135 -208l-411 -215z" />
<glyph unicode="&#xfb;" horiz-adv-x="1159" d="M119 301v717h313v-647q0 -131 94 -131q82 0 141.5 86t59.5 198v494h313v-1018h-290q0 100 12 160l-4 2q-106 -184 -336 -185q-160 0 -231.5 89.5t-71.5 234.5zM239 1274l334 282l334 -282l-117 -141l-217 161l-217 -161z" />
<glyph unicode="&#xfc;" horiz-adv-x="1159" d="M119 301v717h313v-647q0 -131 94 -131q82 0 141.5 86t59.5 198v494h313v-1018h-290q0 100 12 160l-4 2q-106 -184 -336 -185q-160 0 -231.5 89.5t-71.5 234.5zM189 1321q0 66 48 114t114 48q68 0 114.5 -48t46.5 -114q0 -68 -47 -115t-114 -47q-66 0 -114 47t-48 115z M617 1321q0 66 48 114t114 48q68 0 114.5 -48t46.5 -114q0 -68 -47 -115t-114 -47q-66 0 -114 47t-48 115z" />
<glyph unicode="&#xfd;" horiz-adv-x="1056" d="M-27 -487l35 266q68 -20 135 -21q154 0 207 166l25 76l-369 1018h344l103 -297q39 -109 82 -297h2q37 154 96 328l92 266h334l-395 -1057q-100 -264 -222.5 -363.5t-310.5 -99.5q-82 0 -158 15zM397 1303l387 253l135 -208l-411 -215z" />
<glyph unicode="&#xfe;" horiz-adv-x="1144" d="M121 -485v1980h311v-397q0 -133 -8 -197l4 -2q84 141 283 141q178 0 274 -126t96 -349q0 -270 -138 -425.5t-406 -155.5q-61 0 -105 8v-477h-311zM432 240q49 -12 109 -13q211 0 211 305q0 250 -140 250q-80 0 -130 -82t-50 -211v-249z" />
<glyph unicode="&#xff;" horiz-adv-x="1056" d="M-27 -487l35 266q68 -20 135 -21q154 0 207 166l25 76l-369 1018h344l103 -297q39 -109 82 -297h2q37 154 96 328l92 266h334l-395 -1057q-100 -264 -222.5 -363.5t-310.5 -99.5q-82 0 -158 15zM160 1321q0 66 48 114t114 48q68 0 114.5 -48t46.5 -114q0 -68 -47 -115 t-114 -47q-66 0 -114 47t-48 115zM588 1321q0 66 48 114t114 48q68 0 114.5 -48t46.5 -114q0 -68 -47 -115t-114 -47q-66 0 -114 47t-48 115z" />
<glyph unicode="&#x152;" horiz-adv-x="1757" d="M57 674q0 330 196 532.5t478 202.5q111 0 221 -27h709v-268h-459v-274h434v-260h-434v-306h459v-274h-746q-125 -27 -221 -27q-315 0 -476 184.5t-161 516.5zM395 700q0 -207 79 -320.5t239 -113.5q84 0 170 35v791q-76 27 -164 26q-135 0 -229.5 -106.5t-94.5 -311.5z " />
<glyph unicode="&#x153;" horiz-adv-x="1742" d="M57 485q0 248 150.5 401.5t388.5 153.5q209 0 324 -122q121 125 313 124q219 0 329.5 -131t110.5 -342q0 -72 -8 -139h-606q0 -100 63.5 -155.5t188.5 -55.5q152 0 297 64l30 -236q-172 -70 -378 -70q-244 0 -371 140q-125 -139 -342 -140q-231 0 -360.5 123t-129.5 385z M381 520q0 -272 188 -272q86 0 138.5 69.5t52.5 194.5q0 262 -185 262q-82 0 -138 -64.5t-56 -189.5zM1059 637h309q2 86 -36 132t-107 46q-68 0 -113 -49t-53 -129z" />
<glyph unicode="&#x178;" horiz-adv-x="1183" d="M-4 1382h348l158 -352q55 -123 88 -221h4q27 80 106 250l150 323h336l-438 -899v-483h-320v481zM217 1618q0 57 41 99t100.5 42t100.5 -42t41 -99t-41 -99t-100.5 -42t-100.5 42t-41 99zM662 1618q0 57 41.5 99t99 42t99.5 -42t42 -99t-42 -99t-99.5 -42t-99 42t-41.5 99 z" />
<glyph unicode="&#x2c6;" horiz-adv-x="864" d="M96 1274l334 282l334 -282l-117 -141l-217 161l-217 -161z" />
<glyph unicode="&#x2dc;" horiz-adv-x="917" d="M80 1286q98 199 264 199q76 0 147.5 -49.5t100.5 -49.5q59 0 106 91l146 -111q-94 -199 -264 -199q-76 0 -147 49.5t-99 49.5q-59 0 -109 -90z" />
<glyph unicode="&#x2000;" horiz-adv-x="890" />
<glyph unicode="&#x2001;" horiz-adv-x="1780" />
<glyph unicode="&#x2002;" horiz-adv-x="890" />
<glyph unicode="&#x2003;" horiz-adv-x="1780" />
<glyph unicode="&#x2004;" horiz-adv-x="593" />
<glyph unicode="&#x2005;" horiz-adv-x="445" />
<glyph unicode="&#x2006;" horiz-adv-x="296" />
<glyph unicode="&#x2007;" horiz-adv-x="296" />
<glyph unicode="&#x2008;" horiz-adv-x="222" />
<glyph unicode="&#x2009;" horiz-adv-x="356" />
<glyph unicode="&#x200a;" horiz-adv-x="98" />
<glyph unicode="&#x2010;" horiz-adv-x="690" d="M86 430v250h516v-250h-516z" />
<glyph unicode="&#x2011;" horiz-adv-x="690" d="M86 430v250h516v-250h-516z" />
<glyph unicode="&#x2012;" horiz-adv-x="690" d="M86 430v250h516v-250h-516z" />
<glyph unicode="&#x2013;" d="M0 473v275h1126v-275h-1126z" />
<glyph unicode="&#x2014;" horiz-adv-x="2048" d="M217 473v275h1614v-275h-1614z" />
<glyph unicode="&#x2018;" horiz-adv-x="577" d="M117 934q-70 147 35 346q74 143 229 274l127 -112q-104 -113 -121.5 -188.5t41.5 -139.5q39 -55 40 -120.5t-50 -118t-133 -52.5q-117 0 -168 111z" />
<glyph unicode="&#x2019;" horiz-adv-x="577" d="M68 918q106 113 122.5 188.5t-40.5 138.5q-41 55 -42.5 121t51 118t132.5 52q117 0 170 -111q68 -145 -35 -344q-76 -145 -231 -278z" />
<glyph unicode="&#x201a;" horiz-adv-x="577" d="M68 -266q106 113 122.5 189.5t-40.5 137.5q-41 55 -42.5 121t51 118t132.5 52q117 0 170 -110q68 -145 -37 -346q-74 -143 -229 -275z" />
<glyph unicode="&#x201c;" horiz-adv-x="1062" d="M117 934q-70 147 35 346q74 143 229 274l127 -112q-104 -113 -121.5 -188.5t41.5 -139.5q39 -55 40 -120.5t-50 -118t-133 -52.5q-117 0 -168 111zM602 934q-68 145 37 346q74 143 229 274l127 -112q-106 -113 -123.5 -188.5t41.5 -139.5q41 -55 42 -120.5t-51 -118 t-132 -52.5q-117 0 -170 111z" />
<glyph unicode="&#x201d;" horiz-adv-x="1062" d="M68 918q106 113 122.5 188.5t-40.5 138.5q-41 55 -42.5 121t51 118t132.5 52q117 0 170 -111q68 -145 -35 -344q-76 -145 -231 -278zM553 918q106 113 123.5 188.5t-41.5 138.5q-39 55 -40 121t50 118t133 52q115 0 168 -111q68 -145 -35 -344q-76 -145 -231 -278z" />
<glyph unicode="&#x201e;" horiz-adv-x="1062" d="M68 -266q106 113 122.5 189.5t-40.5 137.5q-41 55 -42.5 121t51 118t132.5 52q117 0 170 -110q68 -145 -37 -346q-74 -143 -229 -275zM553 -266q106 115 123.5 190.5t-41.5 136.5q-39 55 -40 121t50 118t133 52q117 0 168 -110q68 -145 -37 -346q-74 -143 -229 -275z" />
<glyph unicode="&#x2022;" horiz-adv-x="868" d="M94 608.5q0 139.5 99.5 239.5t240.5 100q139 0 239.5 -100t100.5 -239.5t-100.5 -240t-239.5 -100.5q-141 0 -240.5 100.5t-99.5 240z" />
<glyph unicode="&#x2026;" horiz-adv-x="1560" d="M90 160q0 76 54.5 129t130 53t130 -53t54.5 -129t-54.5 -130.5t-130.5 -54.5q-78 0 -131 53.5t-53 131.5zM592 160q0 76 54 129t130 53t130.5 -53t54.5 -129q0 -78 -54.5 -131.5t-130.5 -53.5t-130 54.5t-54 130.5zM1096 160q0 76 54 129t130 53t130 -53t54 -129 t-54 -130.5t-130 -54.5t-130 53.5t-54 131.5z" />
<glyph unicode="&#x202f;" horiz-adv-x="356" />
<glyph unicode="&#x2039;" horiz-adv-x="638" d="M66 598l231 416l240 -109l-175 -307l179 -301l-250 -111z" />
<glyph unicode="&#x203a;" horiz-adv-x="638" d="M96 903l252 111l225 -412l-231 -416l-242 109l174 307z" />
<glyph unicode="&#x205f;" horiz-adv-x="445" />
<glyph unicode="&#x20ac;" d="M23 414v188h137v47q0 53 2 82h-139v189h170q53 201 197.5 319.5t389.5 118.5q141 0 287 -53l-72 -246q-106 51 -231 51q-186 0 -250 -190h305v-189h-340q0 -8 -1 -28.5t-1 -30.5q0 -47 2 -70h340v-188h-309q27 -100 90.5 -145.5t169.5 -45.5q119 0 236 53l69 -237 q-158 -66 -348 -66q-229 0 -367.5 103.5t-181.5 337.5h-155z" />
<glyph unicode="&#x2122;" horiz-adv-x="1398" d="M39 1194v188h471v-188h-125v-387h-215v387h-131zM514 807l94 575h252l55 -208l15 -78l12 73l51 213h256l99 -575h-228l-30 213l-11 88l-14 -84l-51 -217h-195l-51 223l-14 78l-4 -74l-31 -227h-205z" />
<glyph unicode="&#xe000;" horiz-adv-x="1013" d="M0 0v1014h1014v-1014h-1014z" />
<glyph unicode="&#xfb01;" horiz-adv-x="1226" d="M18 778v240h156v31q0 236 127 350t393 114q164 0 336 -36l-51 -260q-135 39 -252 38q-127 0 -184.5 -46t-57.5 -146v-45h621v-1018h-313v778h-308v-778h-311v778h-156z" />
<glyph unicode="&#xfb02;" horiz-adv-x="1226" d="M18 778v240h156v86q0 190 126 299.5t398 109.5q168 0 408 -38v-1475h-313v1247q-49 10 -121 10q-186 0 -187 -161v-78h191v-240h-191v-778h-311v778h-156z" />
</font>
</defs>
</svg>
